<svg version="1.1" xmlns="http://www.w3.org/2000/svg" xmlns:xlink="http://www.w3.org/1999/xlink" width="65.80433" height="43.90369" viewBox="0,0,65.80433,43.90369"><g transform="translate(-207.16063,-161.91043)"><g data-paper-data="{&quot;isPaintingLayer&quot;:true}" fill-rule="evenodd" stroke-miterlimit="10" stroke-dasharray="" stroke-dashoffset="0" style="mix-blend-mode: normal"><g stroke-linecap="butt" stroke-linejoin="miter"><path d="M212.96072,179.79743c-1.26905,-1.13645 -1.62071,-2.97073 -0.86017,-4.48907l0.7857,-1.56861h4.64365c7.66719,0 15.02331,3.00482 20.46316,8.35899l0.24081,0.23701l-16.85074,10.79351c-0.4203,-0.52231 -0.98,-0.93419 -1.63324,-1.17916l-1.38847,-0.52054c-1.48476,-0.55656 -2.46704,-1.96537 -2.46704,-3.53845v-3.78657c0,-1.06984 -0.45697,-2.08986 -1.25815,-2.80718l-1.6755,-1.49993" fill="#00b27b" stroke="none" stroke-width="1"/><path d="M207.16064,177.79031c0,-2.23718 1.83018,-4.05062 4.08775,-4.05062h1.63786l-0.7857,1.56861c-0.76054,1.51834 -0.40888,3.35263 0.86017,4.48907l1.6755,1.49993c0.80117,0.71747 1.25815,1.73734 1.25815,2.80718v3.78677c0,1.57288 0.98228,2.98169 2.46704,3.5384l1.38847,0.52054c0.65325,0.24482 1.21295,0.6569 1.63324,1.17901l-3.65285,2.33966c-1.85889,1.19063 -4.23248,-0.47513 -3.71651,-2.60776l0.30712,-1.26911c0.25365,-1.04792 -0.32437,-2.11812 -1.34515,-2.48997c-1.20011,-0.43729 -1.74982,-1.81131 -1.178,-2.94476l0.47732,-0.94636c0.52455,-1.03945 0.10927,-2.30343 -0.93221,-2.83742l-1.99698,-1.02423c-1.34231,-0.6885 -2.18523,-2.0613 -2.18523,-3.55894" fill="#19242d" stroke="none" stroke-width="1"/><path d="M226.4739,198.21375c-2.08682,0.27876 -4.0074,-1.16978 -4.29239,-3.23727c-0.0975,-0.70722 -0.393,-1.35702 -0.8343,-1.88902l16.88676,-10.92845l0.08304,15.13506c-1.25997,0 -2.28147,1.01226 -2.28147,2.26087v1.30457l-1.77275,-1.33957c-1.68935,-1.27666 -3.82162,-1.83606 -5.92736,-1.55487l-1.86153,0.24868" fill="#f2f253" stroke="none" stroke-width="1"/><path d="M221.91381,200.99957c-3.78545,0 -5.25114,-4.88045 -2.08164,-6.93166l1.51504,-0.9805c0.4413,0.532 0.7368,1.18185 0.8343,1.88907c0.285,2.06744 2.20558,3.51598 4.29239,3.23727l1.86153,-0.24868c2.10574,-0.28119 4.23801,0.27815 5.92736,1.55487l1.77275,1.33957v1.75058c0,1.84874 -2.10178,2.93061 -3.62824,1.86746l-0.36145,-0.25187c-1.02185,-0.71179 -2.44654,-0.28292 -2.89606,0.87169c-0.23062,0.59171 -0.9108,0.87575 -1.49917,0.62595l-0.03353,-0.01431c-0.55001,-0.23351 -0.83202,-0.84216 -0.65198,-1.4079l0.26273,-0.82644c0.38996,-1.22654 -0.53418,-2.4751 -1.83175,-2.4751h-3.48229" fill="#19242d" stroke="none" stroke-width="1"/><path d="M226.95046,181.16069c0,2.14379 -1.75368,3.88164 -3.91699,3.88164c-2.16312,0 -3.91679,-1.73785 -3.91679,-3.88164c0,-2.14374 1.75368,-3.88159 3.91679,-3.88159c2.16332,0 3.91699,1.73785 3.91699,3.88159" fill="#19242d" stroke="none" stroke-width="1"/><path d="M226.95046,181.16069c0,2.14379 -1.75368,3.88164 -3.91699,3.88164c-2.16312,0 -3.91679,-1.73785 -3.91679,-3.88164c0,-2.14374 1.75368,-3.88159 3.91679,-3.88159c2.16332,0 3.91699,1.73785 3.91699,3.88159z" fill="none" stroke="#f2f253" stroke-width="3.5"/></g><g stroke-linecap="butt" stroke-linejoin="miter"><path d="M260.37597,191.95009c-0.65345,0.24502 -1.2131,0.6569 -1.6334,1.17901l-16.85059,-10.79346l0.24046,-0.23686c5.44021,-5.35422 12.79617,-8.35904 20.46331,-8.35904h4.6437l0.78565,1.56866c0.76059,1.51829 0.40908,3.35263 -0.86017,4.48902l-1.67545,1.49998c-0.80102,0.71727 -1.2582,1.73714 -1.2582,2.80718v3.78657c0,1.57308 -0.98228,2.98189 -2.46683,3.53845l-1.38847,0.52049" fill="#00b27b" stroke="none" stroke-width="1"/><path d="M266.11183,192.86105c0.51618,2.13283 -1.85762,3.79844 -3.71646,2.60796l-3.65285,-2.33986c0.42045,-0.52211 0.97995,-0.93419 1.6334,-1.17901l1.38847,-0.52049c1.48455,-0.55656 2.46683,-1.96537 2.46683,-3.53845v-3.78677c0,-1.06984 0.45738,-2.08971 1.25835,-2.80698l1.6753,-1.49998c1.26921,-1.1366 1.62071,-2.97073 0.86017,-4.48902l-0.7857,-1.56866h1.63822c2.25742,0 4.0874,1.81349 4.0874,4.05052c0,1.4978 -0.84272,2.87054 -2.18523,3.55889l-1.99698,1.02428c-1.04128,0.53393 -1.45675,1.79806 -0.93221,2.83736l0.47767,0.94636c0.57162,1.13345 0.02197,2.50762 -1.17815,2.94481c-1.02058,0.3718 -1.599,1.44199 -1.34535,2.48992l0.30712,1.26911" fill="#19242d" stroke="none" stroke-width="1"/><path d="M251.79017,197.96512c-2.10554,-0.28119 -4.23766,0.278 -5.92716,1.55466l-1.7728,1.33977v-1.30477c0,-1.24841 -1.02149,-2.26072 -2.28147,-2.26072l0.08325,-15.13501l16.88641,10.9284c-0.44115,0.532 -0.73665,1.18185 -0.83415,1.88907c-0.285,2.06744 -2.20573,3.51582 -4.29255,3.23727l-1.86153,-0.24868" fill="#f2f253" stroke="none" stroke-width="1"/><path d="M247.71835,204.47755c-1.52625,1.06335 -3.62809,-0.01852 -3.62809,-1.86746v-1.75058l1.7728,-1.33957c1.68935,-1.27672 3.82142,-1.83606 5.92716,-1.55487l1.86153,0.24868c2.08682,0.27871 4.0074,-1.16962 4.29255,-3.23727c0.0975,-0.70707 0.393,-1.35707 0.83415,-1.88907l1.51525,0.9805c3.16944,2.05121 1.70361,6.93166 -2.08185,6.93166h-3.48229c-1.29736,0 -2.22156,1.24856 -1.83155,2.4751l0.26268,0.82644c0.17989,0.56574 -0.10212,1.17439 -0.65213,1.4079l-0.03353,0.01431c-0.58821,0.24979 -1.26855,-0.03424 -1.49901,-0.62595c-0.44967,-1.15461 -1.87436,-1.58348 -2.89621,-0.87169l-0.36145,0.25187" fill="#19242d" stroke="none" stroke-width="1"/><path d="M253.17519,181.16069c0,-2.14374 1.75368,-3.88159 3.91699,-3.88159c2.16312,0 3.91679,1.73785 3.91679,3.88159c0,2.14379 -1.75368,3.88164 -3.91679,3.88164c-2.16332,0 -3.91699,-1.73785 -3.91699,-3.88164" fill="#19242d" stroke="none" stroke-width="1"/><path d="M257.09219,177.27911c2.16312,0 3.91679,1.73785 3.91679,3.88159c0,2.14379 -1.75368,3.88164 -3.91679,3.88164c-2.16332,0 -3.91699,-1.73785 -3.91699,-3.88164c0,-2.14374 1.75368,-3.88159 3.91699,-3.88159z" fill="none" stroke="#f2f253" stroke-width="3.5"/></g><g><path d="M230.81951,162.43543l2.13141,1.52783c3.96316,2.84127 6.47185,7.26019 6.86434,12.09229l0.24223,2.98306" fill="none" stroke="#19242d" stroke-width="1.05" stroke-linecap="round" stroke-linejoin="miter"/><path d="M240.05755,179.514l0.24218,-2.98311c0.3925,-4.83185 2.90123,-9.25097 6.86439,-12.09224l2.13141,-1.52783" fill="none" stroke="#19242d" stroke-width="1.05" stroke-linecap="round" stroke-linejoin="miter"/><path d="M240.06222,180.74603c-0.47539,0 -0.86408,-0.38539 -0.86408,-0.85632v-3.87332c0,-0.47087 0.38869,-0.85627 0.86408,-0.85627c0.47519,0 0.86413,0.38539 0.86413,0.85627v3.87332c0,0.47092 -0.38894,0.85632 -0.86413,0.85632" fill="#19242d" stroke="none" stroke-width="1" stroke-linecap="butt" stroke-linejoin="miter"/><path d="M242.6018,182.83427c0,7.33156 -1.13701,22.10629 -2.53958,22.10629c-1.40252,0 -2.53953,-14.77473 -2.53953,-22.10629c0,-2.32373 1.13701,-4.44327 2.53953,-4.44327c1.40258,0 2.53958,2.47282 2.53958,4.44327" fill="#19242d" stroke="none" stroke-width="1" stroke-linecap="butt" stroke-linejoin="miter"/><path d="M242.94295,183.15995c0,2.73139 -1.28975,4.94564 -2.88074,4.94564c-1.59114,0 -2.88089,-2.21425 -2.88089,-4.94564c0,-2.73144 1.28975,-4.94564 2.88089,-4.94564c1.59099,0 2.88074,2.2142 2.88074,4.94564" fill="#19242d" stroke="none" stroke-width="1" stroke-linecap="butt" stroke-linejoin="miter"/><path d="M239.55933,177.63239c0,0.55661 -0.4552,1.0079 -1.01683,1.0079c-0.56163,0 -1.01688,-0.45129 -1.01688,-1.0079c0,-0.55656 0.45525,-1.00785 1.01688,-1.00785c0.56163,0 1.01683,0.45129 1.01683,1.00785" fill="#fcf6ed" stroke="none" stroke-width="1" stroke-linecap="butt" stroke-linejoin="miter"/><path d="M242.58942,177.63239c0,0.55661 -0.4552,1.0079 -1.01688,1.0079c-0.56163,0 -1.01683,-0.45129 -1.01683,-1.0079c0,-0.55656 0.4552,-1.00785 1.01683,-1.00785c0.56168,0 1.01688,0.45129 1.01688,1.00785" fill="#fcf6ed" stroke="none" stroke-width="1" stroke-linecap="butt" stroke-linejoin="miter"/><path d="M239.116,177.63239c0,0.31392 -0.25664,0.56843 -0.57355,0.56843c-0.31676,0 -0.5736,-0.25451 -0.5736,-0.56843c0,-0.31386 0.25684,-0.56838 0.5736,-0.56838c0.31691,0 0.57355,0.25451 0.57355,0.56838" fill="#19242d" stroke="none" stroke-width="1" stroke-linecap="butt" stroke-linejoin="miter"/><path d="M242.14609,177.63239c0,0.31392 -0.25669,0.56843 -0.5736,0.56843c-0.31671,0 -0.57355,-0.25451 -0.57355,-0.56843c0,-0.31386 0.25684,-0.56838 0.57355,-0.56838c0.31691,0 0.5736,0.25451 0.5736,0.56838" fill="#19242d" stroke="none" stroke-width="1" stroke-linecap="butt" stroke-linejoin="miter"/><path d="M228.22532,190.85808l6.06674,-3.93001v-5.80635l5.77015,5.71804" fill="none" stroke="#19242d" stroke-width="1.05" stroke-linecap="round" stroke-linejoin="round"/><path d="M228.22532,192.84483l7.55201,-4.89229l0.00766,-3.18799l4.27722,4.23859" fill="none" stroke="#19242d" stroke-width="1.05" stroke-linecap="round" stroke-linejoin="round"/><path d="M240.06222,186.83976l5.77015,-5.71804v5.80635l6.06656,3.93001" fill="none" stroke="#19242d" stroke-width="1.05" stroke-linecap="round" stroke-linejoin="round"/><path d="M240.06222,189.00314l4.27722,-4.23859l0.00766,3.18799l7.55183,4.89229" fill="none" stroke="#19242d" stroke-width="1.05" stroke-linecap="round" stroke-linejoin="round"/><path d="M234.26248,196.78311l1.64105,-1.62623v-4.92391l4.15869,-2.88472" fill="none" stroke="#19242d" stroke-width="1.05" stroke-linecap="round" stroke-linejoin="round"/><path d="M240.05751,187.34826l4.16546,2.88472v4.92391l1.64355,1.62623" fill="none" stroke="#19242d" stroke-width="1.05" stroke-linecap="round" stroke-linejoin="round"/></g></g></g></svg>