<svg version="1.1" xmlns="http://www.w3.org/2000/svg" xmlns:xlink="http://www.w3.org/1999/xlink" width="56.60165" height="43.44232" viewBox="0,0,56.60165,43.44232"><g transform="translate(-212.16408,-164.67173)"><g data-paper-data="{&quot;isPaintingLayer&quot;:true}" fill-rule="evenodd" stroke-linejoin="miter" stroke-miterlimit="10" stroke-dasharray="" stroke-dashoffset="0" style="mix-blend-mode: normal"><g stroke-linecap="butt"><path d="M217.90416,190.27125c-1.4173,-0.59872 -2.25516,-2.06255 -2.05054,-3.58244l0.21133,-1.57019l3.96664,-1.3611c6.54913,-2.24725 13.71346,-1.83667 19.92969,1.14234l0.275,0.13193l-11.2301,14.15885c-0.51211,-0.32297 -1.11088,-0.51075 -1.74087,-0.52848l-1.3386,-0.03767c-1.43123,-0.04028 -2.68323,-0.95577 -3.14431,-2.29949l-1.10987,-3.23448c-0.31358,-0.91386 -1.00294,-1.6512 -1.89773,-2.02904l-1.87064,-0.79021" fill="#00b27b" stroke="none" stroke-width="1"/><path d="M212.36143,190.25682c-0.65574,-1.911 0.37602,-3.99646 2.30432,-4.65812l1.39919,-0.48011l-0.21133,1.57019c-0.20462,1.51988 0.63324,2.98371 2.05054,3.58244l1.87064,0.79021c0.89483,0.37797 1.58415,1.11519 1.89773,2.02904l1.10993,3.23466c0.46102,1.34355 1.71302,2.25905 3.1443,2.29945l1.3386,0.03767c0.62994,0.01759 1.22877,0.20555 1.74082,0.52835l-2.43448,3.06921c-1.23883,1.56187 -3.75465,0.83472 -3.93895,-1.13823l-0.10964,-1.17409c-0.09053,-0.96947 -0.89813,-1.71415 -1.87903,-1.7326c-1.15314,-0.02183 -2.02543,-1.03439 -1.86924,-2.17018l0.13033,-0.94829c0.14344,-1.04166 -0.58181,-1.99962 -1.62792,-2.15049l-2.00606,-0.28956c-1.34841,-0.19468 -2.47076,-1.12027 -2.90973,-2.39955" fill="#19242d" stroke="none" stroke-width="1"/><path d="M230.22959,200.53451c-0.29054,-0.5754 -0.73347,-1.04402 -1.26636,-1.36911l11.22133,-14.28448l4.50712,12.90383c-1.07627,0.36931 -1.652,1.53334 -1.28602,2.5999l0.38238,1.11436l-1.90692,-0.62465c-1.81742,-0.59531 -3.80259,-0.44821 -5.51889,0.40919l-1.51721,0.75809c-1.70087,0.84973 -3.76596,0.17546 -4.61542,-1.50714" fill="#f2f253" stroke="none" stroke-width="1"/><path d="M231.76634,205.7579c-3.23353,1.10954 -5.91614,-2.62969 -3.81,-5.31083l1.00689,-1.28166c0.53289,0.32508 0.97583,0.79356 1.26641,1.36909c0.84943,1.68247 2.91452,2.35689 4.61539,1.50716l1.51722,-0.75804c1.71631,-0.8574 3.7015,-1.00455 5.51889,-0.40919l1.90696,0.62464l0.51311,1.49535c0.54188,1.57919 -0.93653,3.11943 -2.55188,2.65865l-0.38262,-0.10919c-1.08149,-0.3085 -2.17272,0.47541 -2.21845,1.59349c-0.02343,0.57299 -0.52132,1.01502 -1.09699,0.97406l-0.03279,-0.00241c-0.53831,-0.03823 -0.95755,-0.47551 -0.96976,-1.01147l-0.01781,-0.78295c-0.0264,-1.16202 -1.18177,-1.95766 -2.29002,-1.57737l-2.97457,1.02069" fill="#19242d" stroke="none" stroke-width="1"/><path d="M230.25376,187.33525c0.62836,1.83122 -0.36029,3.82972 -2.20816,4.46379c-1.84773,0.63403 -3.85514,-0.33641 -4.4835,-2.16764c-0.62834,-1.83117 0.36031,-3.82968 2.20804,-4.4637c1.84786,-0.63407 3.85527,0.33637 4.48361,2.16755" fill="#19242d" stroke="none" stroke-width="1"/><path d="M230.25376,187.33525c0.62836,1.83122 -0.36029,3.82972 -2.20816,4.46379c-1.84773,0.63403 -3.85514,-0.33641 -4.4835,-2.16764c-0.62834,-1.83117 0.36031,-3.82968 2.20804,-4.4637c1.84786,-0.63407 3.85527,0.33637 4.48361,2.16755z" fill="none" stroke="#f2f253" stroke-width="3.5"/><path d="M239.53392,195.17107c0.37643,1.09702 -0.21583,2.29405 -1.32269,2.67386c-1.10704,0.37987 -2.30934,-0.20138 -2.68577,-1.29841c-0.37637,-1.09685 0.2157,-2.29401 1.32273,-2.67387c1.10687,-0.37981 2.30936,0.20157 2.68573,1.29842" fill="#19242d" stroke="none" stroke-width="1"/></g><g stroke-linecap="butt"><path d="M261.96822,186.75429c-0.48636,0.40084 -0.84369,0.91669 -1.04967,1.48587l-17.55754,-4.28069l0.1361,-0.27285c3.07753,-6.16809 8.48038,-10.89094 15.02964,-13.13824l3.96664,-1.3611l1.13089,1.10967c1.09472,1.07399 1.33195,2.74397 0.58101,4.08664l-0.99152,1.77237c-0.47413,0.84752 -0.56558,1.85265 -0.25194,2.76668l1.10987,3.23448c0.46108,1.34372 0.03495,2.83504 -1.07015,3.74563l-1.03335,0.85153" fill="#00b27b" stroke="none" stroke-width="1"/><path d="M267.13479,185.85121c1.06607,1.67057 -0.47343,3.78911 -2.41018,3.31704l-3.80609,-0.92803c0.20611,-0.56923 0.56326,-1.08521 1.04967,-1.48587l1.03335,-0.85153c1.1051,-0.91059 1.53123,-2.40191 1.07015,-3.74563l-1.10993,-3.23466c-0.31358,-0.91386 -0.22199,-1.91903 0.25218,-2.76656l0.99134,-1.7723c0.75088,-1.34286 0.51371,-3.01266 -0.58101,-4.08664l-1.13089,-1.10967l1.39919,-0.48011c1.92842,-0.66171 4.02312,0.35099 4.67882,2.26186c0.43902,1.27942 0.1214,2.69907 -0.82345,3.6805l-1.40563,1.46029c-0.73296,0.76129 -0.71734,1.96289 0.0354,2.6969l0.68524,0.66843c0.82068,0.80059 0.7539,2.13553 -0.14323,2.86078c-0.76267,0.61669 -0.94304,1.70037 -0.41921,2.52116l0.63428,0.99406" fill="#19242d" stroke="none" stroke-width="1"/><path d="M256.39728,194.40888c-1.88097,0.37695 -3.53828,1.47954 -4.60742,3.06533l-1.12145,1.664l-0.38244,-1.11453c-0.36591,-1.06639 -1.53536,-1.63164 -2.61146,-1.26239l-4.36525,-12.95266l17.62773,4.38544c-0.22107,0.5838 -0.283,1.22551 -0.159,1.8582c0.36266,1.8495 -0.85344,3.64967 -2.71765,4.02339l-1.66305,0.33322" fill="#f2f253" stroke="none" stroke-width="1"/><path d="M254.82798,201.16528c-0.99205,1.35567 -3.1045,1.04759 -3.64643,-0.53178l-0.51311,-1.49535l1.12152,-1.66383c1.06896,-1.58578 2.72626,-2.68851 4.60736,-3.06551l1.66305,-0.33322c1.86425,-0.37359 3.08024,-2.17367 2.71765,-4.02339c-0.12396,-0.63256 -0.06207,-1.2744 0.159,-1.8582l1.58154,0.39347c3.30869,0.8231 3.48707,5.42164 0.25354,6.53118l-2.97453,1.02067c-1.10842,0.38034 -1.53186,1.71773 -0.83925,2.65115l0.46666,0.62893c0.31944,0.43054 0.25717,1.03304 -0.14425,1.39373l-0.02445,0.02205c-0.42936,0.38583 -1.09359,0.34256 -1.46406,-0.09527c-0.7224,-0.85451 -2.06504,-0.80328 -2.72926,0.10425l-0.23496,0.32111" fill="#19242d" stroke="none" stroke-width="1"/><path d="M252.65486,179.6486c-0.62834,-1.83117 0.36031,-3.82968 2.20817,-4.46375c1.84773,-0.63403 3.85514,0.33641 4.48349,2.16759c0.62836,1.83122 -0.36029,3.82972 -2.20803,4.46375c-1.84786,0.63407 -3.85527,-0.33637 -4.48363,-2.16759" fill="#19242d" stroke="none" stroke-width="1"/><path d="M254.86303,175.18485c1.84773,-0.63403 3.85514,0.33641 4.48349,2.16759c0.62836,1.83122 -0.36029,3.82972 -2.20803,4.46375c-1.84786,0.63407 -3.85527,-0.33637 -4.48363,-2.16759c-0.62834,-1.83117 0.36031,-3.82968 2.20817,-4.46375z" fill="none" stroke="#f2f253" stroke-width="3.5"/><path d="M254.00948,190.20396c0.37643,1.09702 -0.21587,2.29407 -1.32273,2.67387c-1.10704,0.37987 -2.30934,-0.20138 -2.68577,-1.29841c-0.37637,-1.09685 0.2157,-2.29401 1.32273,-2.67387c1.10687,-0.37981 2.3094,0.20155 2.68577,1.29841" fill="#19242d" stroke="none" stroke-width="1"/></g><g><path d="M228.07014,170.20612l2.26834,0.68038c4.21826,1.26534 7.65643,4.30464 9.40799,8.31719l1.08128,2.47713" fill="none" stroke="#19242d" stroke-width="1.05" stroke-linecap="round"/><path d="M240.96712,182.08688l-0.66746,-2.61917c-1.08116,-4.24235 -0.23347,-8.75249 2.31919,-12.34117l1.37284,-1.9298" fill="none" stroke="#19242d" stroke-width="1.05" stroke-linecap="round"/><path d="M241.33223,183.13791c-0.40603,0.13933 -0.85123,-0.07587 -0.98926,-0.47814l-1.1353,-3.30858c-0.13802,-0.40222 0.08126,-0.84542 0.4873,-0.98475c0.4059,-0.13928 0.8511,0.07592 0.98912,0.47814l1.1353,3.30858c0.13803,0.40226 -0.08124,0.84547 -0.48714,0.98475" fill="#19242d" stroke="none" stroke-width="1" stroke-linecap="butt"/><path d="M244.11361,184.17731c2.14893,6.26261 5.5083,19.21644 4.31021,19.62754c-1.19803,0.41109 -6.50002,-11.87615 -8.64896,-18.13876c-0.6811,-1.98493 -0.33095,-4.12875 0.86708,-4.53985c1.19808,-0.4111 2.89411,1.36791 3.47166,3.05106" fill="#19242d" stroke="none" stroke-width="1" stroke-linecap="butt"/><path d="M244.50049,184.35551c0.80059,2.33315 0.3479,4.6026 -1.01107,5.06891c-1.35915,0.46638 -3.10987,-1.047 -3.91046,-3.38015c-0.80061,-2.33319 -0.3479,-4.6026 1.01125,-5.06898c1.35898,-0.46631 3.10968,1.04702 3.91029,3.38021" fill="#19242d" stroke="none" stroke-width="1" stroke-linecap="butt"/><path d="M239.99008,180.62562c0.16315,0.47546 -0.09358,0.99443 -0.57319,1.159c-0.47974,0.16462 -1.00102,-0.08739 -1.16417,-0.56285c-0.16313,-0.47541 0.0936,-0.99439 0.57334,-1.159c0.47961,-0.16457 1.00089,0.08744 1.16402,0.56285" fill="#fcf6ed" stroke="none" stroke-width="1" stroke-linecap="butt"/><path d="M242.57833,179.7375c0.16315,0.47546 -0.09358,0.99443 -0.57315,1.15899c-0.47974,0.16462 -1.00102,-0.08739 -1.16417,-0.56285c-0.16313,-0.47541 0.0936,-0.99439 0.57334,-1.159c0.47957,-0.16456 1.00085,0.08745 1.16398,0.56286" fill="#fcf6ed" stroke="none" stroke-width="1" stroke-linecap="butt"/><path d="M239.61139,180.75556c0.09201,0.26814 -0.05279,0.56084 -0.32336,0.65368c-0.27053,0.09283 -0.56452,-0.04929 -0.65654,-0.31743c-0.09199,-0.2681 0.0528,-0.56079 0.32333,-0.65362c0.27057,-0.09284 0.56457,0.04928 0.65657,0.31738" fill="#19242d" stroke="none" stroke-width="1" stroke-linecap="butt"/><path d="M242.19964,179.86743c0.09201,0.26814 -0.05279,0.56084 -0.32331,0.65367c-0.27057,0.09284 -0.56457,-0.04928 -0.65658,-0.31742c-0.09199,-0.2681 0.0528,-0.56079 0.32337,-0.65363c0.27053,-0.09283 0.56452,0.04929 0.65652,0.3174" fill="#19242d" stroke="none" stroke-width="1" stroke-linecap="butt"/></g></g></g></svg>