<svg version="1.1" xmlns="http://www.w3.org/2000/svg" xmlns:xlink="http://www.w3.org/1999/xlink" width="47.57" height="43.0974" viewBox="0,0,47.57,43.0974"><g transform="translate(-218.13948,-153.52533)"><g data-paper-data="{&quot;isPaintingLayer&quot;:true}" fill-rule="evenodd" stroke-miterlimit="10" stroke-dasharray="" stroke-dashoffset="0" style="mix-blend-mode: normal"><g stroke-linecap="butt" stroke-linejoin="miter"><path d="M259.43679,172.52876c-5.79085,4.41564 -13.09345,6.36263 -20.31445,5.41641l-0.31951,-0.04191l6.45286,-17.92818c0.62099,0.15579 1.28321,0.14752 1.91909,-0.04227l1.35131,-0.40295c1.4447,-0.43103 3.00553,0.07679 3.91987,1.2752l2.20116,2.88501c0.62196,0.81507 1.56,1.329 2.58196,1.41402l2.1373,0.17805c1.6192,0.13468 2.95092,1.32988 3.25917,2.92473l0.31834,1.64748l-3.50712,2.6744" fill="#00b27b" stroke="none" stroke-width="1"/><path d="M247.17479,159.93276c-0.63589,0.18979 -1.29797,0.19809 -1.91908,0.04231l1.39897,-3.88622c0.71184,-1.97768 3.47276,-2.07573 4.32291,-0.15335l0.5057,1.14366c0.41763,0.94452 1.47639,1.4267 2.46333,1.1223c1.16053,-0.35811 2.37446,0.37239 2.60143,1.56515l0.18958,0.99607c0.20809,1.09392 1.25646,1.81771 2.35351,1.62477l2.10363,-0.36957c1.41394,-0.24855 2.84845,0.31176 3.7191,1.4529c1.30041,1.70444 0.97232,4.14019 -0.73273,5.44027l-1.2372,0.94331l-0.31834,-1.64748c-0.30825,-1.59485 -1.63996,-2.79007 -3.25917,-2.92473l-2.13731,-0.1781c-1.02196,-0.08497 -1.96,-0.5989 -2.58196,-1.41402l-2.20116,-2.88496c-0.91434,-1.19841 -2.47516,-1.70622 -3.91987,-1.27525l-1.35131,0.40295" fill="#19242d" stroke="none" stroke-width="1"/><path d="M238.90551,178.03768l-8.86043,-11.48318c0.9516,-0.72571 1.13467,-2.08512 0.40896,-3.03637l-0.75845,-0.99404l2.11774,-0.00028c2.01806,-0.00024 3.95351,-0.80203 5.38045,-2.2291l1.26141,-1.26153c1.41413,-1.41418 3.70664,-1.41673 5.12376,-0.00565c0.48462,0.48263 1.08552,0.80759 1.72815,0.95882z" fill="#f2f253" stroke="none" stroke-width="1"/><path d="M237.19377,160.29474c-1.42697,1.42693 -3.3624,2.22871 -5.38047,2.22895l-2.11771,0.00048l-1.01752,-1.33384c-1.07474,-1.40861 -0.1161,-3.44341 1.65469,-3.51226l0.41959,-0.0164c1.18539,-0.04612 2.01215,-1.19337 1.6807,-2.33205c-0.17008,-0.58359 0.17869,-1.19172 0.76823,-1.34017l0.03361,-0.00851c0.55113,-0.13869 1.11794,0.16266 1.31079,0.69706l0.28218,0.78115c0.41834,1.15897 1.84206,1.5781 2.82203,0.83099l2.63016,-2.00574c2.85912,-2.18006 6.80309,0.69423 5.60154,4.08225l-0.5745,1.61972c-0.64246,-0.1514 -1.24353,-0.47618 -1.72815,-0.95882c-1.41712,-1.41108 -3.70963,-1.40853 -5.12376,0.0057l-1.26142,1.26148" fill="#19242d" stroke="none" stroke-width="1"/><path d="M250.40165,174.36887c-2.04108,0.23725 -3.88802,-1.22455 -4.1252,-3.26502c-0.23716,-2.04032 1.22523,-3.88679 3.26631,-4.12404c2.04113,-0.23725 3.88806,1.22455 4.12522,3.26487c0.23718,2.04047 -1.22521,3.88693 -3.26634,4.12418" fill="#19242d" stroke="none" stroke-width="1"/><path d="M250.40165,174.36887c-2.04108,0.23725 -3.88802,-1.22455 -4.1252,-3.26502c-0.23716,-2.04032 1.22523,-3.88679 3.26631,-4.12404c2.04113,-0.23725 3.88806,1.22455 4.12522,3.26487c0.23718,2.04047 -1.22521,3.88693 -3.26634,4.12418z" fill="none" stroke="#f2f253" stroke-width="3.5"/></g><g><path d="M237.0498,177.86988l-4.74731,9.0147l-6.35191,0.73833l-2.42558,2.93154" fill="none" stroke="#19242d" stroke-width="1.05" stroke-linecap="round" stroke-linejoin="round"/><path d="M238.15565,179.23694l-4.74731,9.0147l-6.35191,0.73833l-2.42556,2.93171" fill="none" stroke="#19242d" stroke-width="1.05" stroke-linecap="round" stroke-linejoin="round"/><path d="M235.94401,176.50265l-4.74731,9.0147l-6.35191,0.73833l-2.42556,2.93171" fill="none" stroke="#19242d" stroke-width="1.05" stroke-linecap="round" stroke-linejoin="round"/><path d="M234.83819,175.13561l-4.74731,9.0147l-6.35191,0.73833l-2.42558,2.93154" fill="none" stroke="#19242d" stroke-width="1.05" stroke-linecap="round" stroke-linejoin="round"/><path d="M218.87658,171.25432l2.50282,1.98109l6.5961,-0.76671l5.85106,4.63086" fill="none" stroke="#19242d" stroke-width="1.05" stroke-linecap="round" stroke-linejoin="round"/><path d="M218.66448,169.42962l3.02577,2.40643l6.5961,-0.76671l5.32813,4.20551" fill="none" stroke="#19242d" stroke-width="1.05" stroke-linecap="round" stroke-linejoin="round"/><path d="M258.60839,188.68687l-2.49783,0.06339c-4.64512,0.11786 -9.10855,-1.80436 -12.21358,-5.25953l-1.91697,-2.1332" fill="none" stroke="#19242d" stroke-width="1.05" stroke-linecap="round" stroke-linejoin="miter"/><path d="M241.39205,181.01912l12.10352,15.07861" fill="none" stroke="#19242d" stroke-width="1.05" stroke-linecap="round" stroke-linejoin="miter"/><path d="M235.21398,180.03898c-4.26171,-5.58576 -12.31536,-17.31733 -10.93195,-18.30538c1.40368,-1.00234 10.57498,9.34965 14.83665,14.93556c1.35067,1.77031 1.6556,4.48467 0.5963,5.29244c-1.05935,0.80778 -3.35565,-0.42133 -4.50099,-1.92262" fill="#19242d" stroke="none" stroke-width="1" stroke-linecap="butt" stroke-linejoin="miter"/><path d="M240.19027,178.52668l3.69208,4.8866l-2.4072,0.27981c-0.78372,0.0911 -1.49251,-0.4699 -1.58356,-1.25319l-0.45226,-3.89084z" fill="#19242d" stroke="none" stroke-width="1" stroke-linecap="butt" stroke-linejoin="miter"/><path d="M240.87125,182.26541c-0.3235,-0.42401 -0.24191,-1.03002 0.1822,-1.35347c0.4243,-0.32349 1.03035,-0.24195 1.35391,0.1822c0.3235,0.42401 0.24191,1.03002 -0.18222,1.35333c-0.42429,0.32363 -1.03035,0.2419 -1.3539,-0.18206" fill="#fbf4e9" stroke="none" stroke-width="1" stroke-linecap="butt" stroke-linejoin="miter"/><path d="M241.2061,182.01002c-0.18238,-0.23899 -0.13638,-0.58085 0.10287,-0.76321c0.23922,-0.18255 0.58104,-0.13639 0.76361,0.10258c0.18235,0.23914 0.13639,0.58104 -0.10289,0.76337c-0.23924,0.18235 -0.581,0.13639 -0.76359,-0.10273" fill="#19242d" stroke="none" stroke-width="1" stroke-linecap="butt" stroke-linejoin="miter"/><path d="M234.76702,179.98722c-1.58772,-2.08097 -1.90068,-4.51087 -0.69899,-5.427c1.20165,-0.91651 3.46275,0.02772 5.05049,2.10889c1.58772,2.08097 1.90087,4.51085 0.699,5.42704c-1.20148,0.9163 -3.46277,-0.02792 -5.0505,-2.10894" fill="#19242d" stroke="none" stroke-width="1" stroke-linecap="butt" stroke-linejoin="miter"/></g></g></g></svg>