<svg version="1.1" xmlns="http://www.w3.org/2000/svg" xmlns:xlink="http://www.w3.org/1999/xlink" width="42.95886" height="113.19869" viewBox="0,0,42.95886,113.19869"><defs><linearGradient x1="109.18146" y1="195.48584" x2="113.29019" y2="195.48584" gradientUnits="userSpaceOnUse" id="color-1"><stop offset="0" stop-color="#1a2600"/><stop offset="1" stop-color="#ffffff"/></linearGradient><linearGradient x1="94.99877" y1="265.72994" x2="135.96427" y2="265.72994" gradientUnits="userSpaceOnUse" id="color-2"><stop offset="0" stop-color="#ded900"/><stop offset="1" stop-color="#57de47"/></linearGradient><linearGradient x1="96.94205" y1="268.31538" x2="134.02106" y2="263.14453" gradientUnits="userSpaceOnUse" id="color-3"><stop offset="0" stop-color="#1a2600"/><stop offset="1" stop-color="#ffffff"/></linearGradient></defs><g transform="translate(-94.49877,-187.87432)"><g data-paper-data="{&quot;isPaintingLayer&quot;:true}" fill-rule="nonzero" stroke-linecap="butt" stroke-linejoin="miter" stroke-miterlimit="10" stroke-dasharray="" stroke-dashoffset="0" style="mix-blend-mode: normal"><path d="M111.02608,202.59559c-1.12857,-0.08637 -1.94956,-3.33954 -1.83373,-7.26614c0.11584,-3.9266 1.12464,-7.03974 2.25321,-6.95337c1.12858,0.08637 1.94956,3.33954 1.83373,7.26614c-0.11583,3.92661 -1.12463,7.03974 -2.2532,6.95337z" fill="#7fb749" stroke="url(#color-1)" stroke-width="1"/><path d="M117.32691,214.00354c-2.61189,2.85701 -7.1627,2.87372 -10.16455,0.03729c-3.00184,-2.83642 -3.31795,-7.45189 -0.70607,-10.3089c2.61189,-2.85701 7.16273,-2.87369 10.16456,-0.03728c3.00183,2.83642 3.31793,7.45188 0.70605,10.30889z" fill="#81f300" stroke="#7fb749" stroke-width="1"/><path d="M103.82478,216.30056c0.14335,-4.16384 3.36786,-7.42871 7.20207,-7.29227c3.83422,0.13643 6.82628,3.62252 6.68292,7.78636c-0.14335,4.16385 -3.36784,7.42871 -7.20206,7.29227c-3.83422,-0.13643 -6.82629,-3.62252 -6.68293,-7.78636z" fill="#7fb749" stroke="#a4f200" stroke-width="1"/><path d="M115.73175,228.29598c-2.61189,2.85701 -7.1627,2.87372 -10.16455,0.03729c-3.00184,-2.83642 -3.31795,-7.45189 -0.70607,-10.3089c2.61189,-2.85701 7.16273,-2.87369 10.16456,-0.03728c3.00183,2.83642 3.31793,7.45188 0.70605,10.30889z" fill="#81f300" stroke="#7fb749" stroke-width="1"/><path d="M115.95819,235.53246c-2.61188,2.85701 -7.16272,2.87369 -10.16456,0.03728c-3.00183,-2.83643 -3.31793,-7.45189 -0.70605,-10.3089c2.61188,-2.85701 7.16271,-2.8737 10.16455,-0.03729c3.00184,2.83643 3.31795,7.45189 0.70607,10.3089z" fill="#7fb749" stroke="#a4f200" stroke-width="1"/><path d="M113.08675,240.30677c-2.61188,2.85701 -7.1627,2.87372 -10.16455,0.03729c-3.00184,-2.83642 -3.31795,-7.45189 -0.70607,-10.3089c2.61188,-2.85701 7.16272,-2.87369 10.16456,-0.03728c3.00183,2.83641 3.31793,7.45187 0.70605,10.30888z" fill="#81f300" stroke="#7fb749" stroke-width="1"/><path d="M100.80587,234.93037z" fill="#000000" stroke="#7fb749" stroke-width="1"/><path d="M99.84121,241.61765c0.14335,-4.16384 3.36784,-7.4287 7.20206,-7.29226c3.83422,0.13643 6.82628,3.62251 6.68292,7.78635c-0.14335,4.16385 -3.36784,7.42871 -7.20206,7.29227c-3.83422,-0.13643 -6.82628,-3.62252 -6.68292,-7.78636z" fill="#7fb749" stroke="#a4f200" stroke-width="1"/><path d="M100.77477,248.02421c0.14335,-4.16384 3.36784,-7.42871 7.20206,-7.29227c3.83423,0.13643 6.82628,3.62252 6.68292,7.78636c-0.14335,4.16384 -3.36784,7.4287 -7.20206,7.29226c-3.83422,-0.13643 -6.82628,-3.62251 -6.68292,-7.78635z" fill="#81f300" stroke="#7fb749" stroke-width="1"/><path d="M100.67048,252.43585c0.14335,-4.16384 3.36784,-7.4287 7.20206,-7.29226c3.83422,0.13643 6.82628,3.62251 6.68292,7.78635c-0.14335,4.16385 -3.36784,7.42871 -7.20206,7.29227c-3.83422,-0.13643 -6.82628,-3.62252 -6.68292,-7.78636z" fill="#7fb749" stroke="#a4f200" stroke-width="1"/><path d="M101.82576,257.40922c0.14335,-4.16384 3.36784,-7.42871 7.20206,-7.29227c3.83422,0.13643 6.82628,3.62252 6.68292,7.78636c-0.14335,4.16384 -3.36784,7.4287 -7.20206,7.29226c-3.83422,-0.13643 -6.82628,-3.6225 -6.68292,-7.78635z" fill="#81f300" stroke="#7fb749" stroke-width="1"/><path d="M101.31166,261.70736c0.14335,-4.16385 3.36784,-7.42871 7.20206,-7.29227c3.83422,0.13643 6.82628,3.62252 6.68292,7.78636c-0.14335,4.16384 -3.36784,7.4287 -7.20206,7.29226c-3.83422,-0.13643 -6.82628,-3.6225 -6.68292,-7.78635z" fill="#7fb749" stroke="#a4f200" stroke-width="1"/><path d="M102.77459,266.24011c0.14335,-4.16384 3.36784,-7.4287 7.20206,-7.29226c3.83422,0.13643 6.82628,3.62251 6.68292,7.78635c-0.14335,4.16384 -3.36784,7.4287 -7.20206,7.29226c-3.83422,-0.13643 -6.82628,-3.6225 -6.68292,-7.78635z" fill="#81f300" stroke="#7fb749" stroke-width="1"/><path d="M104.75966,270.85912c0.14335,-4.16384 3.36784,-7.4287 7.20206,-7.29226c3.83422,0.13643 6.82628,3.6225 6.68292,7.78635c-0.14335,4.16384 -3.36784,7.4287 -7.20206,7.29226c-3.83422,-0.13643 -6.82628,-3.6225 -6.68292,-7.78635z" fill="#7fb749" stroke="#a4f200" stroke-width="1"/><path d="M104.53975,276.1464c0.14335,-4.16384 3.36784,-7.4287 7.20206,-7.29226c3.83422,0.13643 6.82628,3.6225 6.68292,7.78635c-0.14335,4.16384 -3.36784,7.4287 -7.20206,7.29226c-3.83423,-0.13643 -6.82628,-3.6225 -6.68292,-7.78635z" fill="#81f300" stroke="#7fb749" stroke-width="1"/><path d="M104.37938,282.42569c0.14335,-4.16385 3.36784,-7.42871 7.20206,-7.29227c3.83422,0.13643 6.82628,3.62251 6.68292,7.78636c-0.14335,4.16385 -3.36784,7.42871 -7.20206,7.29227c-3.83422,-0.13643 -6.82628,-3.62251 -6.68292,-7.78636z" fill="#7fb749" stroke="#a4f200" stroke-width="1"/><path d="M109.04532,285.58171c0.14335,-4.16385 3.36784,-7.42871 7.20206,-7.29227c3.83422,0.13643 6.82628,3.62251 6.68292,7.78636c-0.14335,4.16384 -3.36784,7.4287 -7.20206,7.29226c-3.83422,-0.13643 -6.82628,-3.6225 -6.68292,-7.78635z" fill="#81f300" stroke="#7fb749" stroke-width="1"/><path d="M113.56983,292.93998c-2.50903,-3.32609 -2.05785,-7.8926 1.00773,-10.19957c3.06557,-2.30697 7.58471,-1.48082 10.09374,1.84528c2.50903,3.32609 2.05785,7.89261 -1.00773,10.19958c-3.06557,2.30697 -7.58471,1.48081 -10.09375,-1.84529z" fill="#7fb749" stroke="#a4f200" stroke-width="1"/><path d="M100.80468,246.575z" fill="#000000" stroke="#7fb749" stroke-width="1"/><path d="M99.3024,276.08132c0.00732,-0.21233 0.16953,-0.37891 0.36233,-0.37205c0.1928,0.00686 0.34316,0.18456 0.33585,0.3969c-0.00732,0.21233 -0.16953,0.37891 -0.36233,0.37205c-0.1928,-0.00686 -0.34316,-0.18456 -0.33585,-0.3969z" fill="#d4d4d4" stroke="none" stroke-width="0"/><path d="M123.89836,300.525c-10.30996,1.00081 -22.43627,-13.76615 -27.08483,-32.98289c-4.64845,-19.21673 -0.05888,-35.60642 10.25109,-36.60723c10.31005,-1.00083 22.43627,13.76615 27.08483,32.98289c4.64856,19.21678 0.05896,35.6064 -10.251,36.60722z" fill="url(#color-2)" stroke="url(#color-3)" stroke-width="1"/><g><g stroke-width="0"><path d="M137.45342,279.82307c0.08689,1.63267 -1.18284,3.04104 -2.83608,3.1457c-1.65323,0.10467 -3.06385,-1.13399 -3.15073,-2.76668c-0.08689,-1.63267 1.18284,-3.04104 2.83608,-3.1457c1.65323,-0.10467 3.06385,1.13399 3.15073,2.76668z" fill="#000000" stroke="#7fb749"/><path d="M137.00181,279.44257c0.0387,0.72723 -0.55176,1.35616 -1.31886,1.40472c-0.76707,0.04856 -1.4203,-0.5016 -1.459,-1.22886c-0.0387,-0.72723 0.55176,-1.35616 1.31886,-1.40472c0.76707,-0.04856 1.4203,0.5016 1.459,1.22886z" fill="#ffffff" stroke="none"/><path d="M134.95556,277.96274c0.01641,0.30854 -0.2906,0.57893 -0.68578,0.60395c-0.39516,0.02501 -0.72882,-0.20482 -0.74524,-0.51335c-0.01642,-0.30854 0.2906,-0.57893 0.68578,-0.60395c0.39516,-0.02501 0.72882,0.20482 0.74524,0.51335z" fill="#ffffff" stroke="none"/></g><path d="M129.71647,293.36369c-3.91192,1.43354 -8.14996,-0.32592 -9.4659,-3.92983c-1.31596,-3.60391 0.78851,-7.68758 4.70044,-9.12111c3.91192,-1.43354 8.14995,0.32592 9.46589,3.92983c1.31595,3.6039 -0.7885,7.68758 -4.70043,9.12111z" fill="#81f300" stroke="#7fb749" stroke-width="1"/><path d="M129.56415,283.22161c-1.11711,0.09342 -2.05282,-0.30535 -2.08998,-0.89069c-0.03714,-0.58534 0.83835,-1.13558 1.95545,-1.22902c1.11711,-0.09342 2.05282,0.30535 2.08998,0.89069c0.03714,0.58534 -0.83835,1.13558 -1.95545,1.22902z" fill="#000000" stroke="#7fb749" stroke-width="0.5"/><g stroke-width="0"><path d="M132.24731,292.56234c0.06514,1.75036 -1.31858,3.23778 -3.09064,3.3223c-1.77206,0.08452 -3.26138,-1.26588 -3.32651,-3.01624c-0.06514,-1.75036 1.31858,-3.23778 3.09064,-3.3223c1.77206,-0.08452 3.26138,1.26588 3.32651,3.01624z" fill="#000000" stroke="#7fb749"/><path d="M131.77026,292.14724c0.02901,0.77968 -0.614,1.44352 -1.43624,1.48273c-0.82222,0.03922 -1.51229,-0.56106 -1.5413,-1.34071c-0.02901,-0.77968 0.614,-1.44352 1.43624,-1.48273c0.82222,-0.03922 1.51229,0.56106 1.5413,1.34071z" fill="#ffffff" stroke="none"/><path d="M129.60441,290.52787c0.01231,0.33078 -0.32109,0.61529 -0.74467,0.6355c-0.42356,0.0202 -0.77692,-0.23158 -0.78923,-0.56233c-0.01231,-0.33078 0.32109,-0.61529 0.74467,-0.6355c0.42356,-0.0202 0.77692,0.23158 0.78923,0.56233z" fill="#ffffff" stroke="none"/></g></g></g></g></svg>