<svg version="1.1" xmlns="http://www.w3.org/2000/svg" xmlns:xlink="http://www.w3.org/1999/xlink" width="158.57112" height="50.78619" viewBox="0,0,158.57112,50.78619"><g transform="translate(-14.44304,-222.50074)"><g data-paper-data="{&quot;isPaintingLayer&quot;:true}" fill-rule="nonzero" stroke-linecap="butt" stroke-linejoin="miter" stroke-miterlimit="10" stroke-dasharray="" stroke-dashoffset="0" style="mix-blend-mode: normal"><path d="M40.45134,243.05735c0,6.59429 -5.71023,11.94004 -12.75415,11.94004c-7.04391,0 -12.75415,-5.34576 -12.75415,-11.94004c0,-6.59427 5.71024,-11.94006 12.75415,-11.94006c7.04391,0 12.75415,5.34577 12.75415,11.94006z" fill="#7fb749" stroke="#a4f200" stroke-width="1"/><path d="M46.70241,249.66612c-4.98429,4.31758 -12.76362,3.50164 -17.3756,-1.82248c-4.61196,-5.32412 -4.31016,-13.14032 0.67413,-17.45792c4.98429,-4.31758 12.76364,-3.50162 17.37561,1.82253c4.61199,5.32415 4.31014,13.14031 -0.67415,17.45789z" fill="#81f300" stroke="#7fb749" stroke-width="1"/><path d="M58.73423,255.66591c-4.98429,4.31758 -12.76362,3.50162 -17.37561,-1.82253c-4.61196,-5.32414 -4.31014,-13.14032 0.67415,-17.45789c4.98429,-4.31758 12.76362,-3.50164 17.37561,1.8225c4.61196,5.32414 4.31016,13.14034 -0.67413,17.45792z" fill="#7fb749" stroke="#a4f200" stroke-width="1"/><path d="M65.95088,262.00702c-4.98429,4.31758 -12.76362,3.50164 -17.37558,-1.8225c-4.61196,-5.32414 -4.31016,-13.14034 0.67413,-17.45792c4.98429,-4.31758 12.76364,-3.50162 17.37561,1.82253c4.61199,5.32415 4.31014,13.14032 -0.67415,17.45789z" fill="#81f300" stroke="#7fb749" stroke-width="1"/><path d="M58.80939,224.41962z" fill="#000000" stroke="#7fb749" stroke-width="1"/><g stroke-width="0"><path d="M171.60888,229.20872c0,2.80534 -2.27413,5.07947 -5.07947,5.07947c-2.80534,0 -5.07947,-2.27413 -5.07947,-5.07947c0,-2.80534 2.27413,-5.07947 5.07947,-5.07947c2.80534,0 5.07947,2.27413 5.07947,5.07947z" fill="#000000" stroke="#7fb749"/><path d="M169.49252,227.21559c0,1.30169 -1.013,2.35686 -2.26258,2.35686c-1.24961,0 -2.26258,-1.05522 -2.26258,-2.35686c0,-1.30169 1.013,-2.35686 2.26258,-2.35686c1.24961,0 2.26258,1.05522 2.26258,2.35686z" fill="#ffffff" stroke="none"/><path d="M170.94588,229.40029c0,0.67056 -0.42976,1.21415 -0.95989,1.21415c-0.53013,0 -0.95989,-0.5436 -0.95989,-1.21415c0,-0.67056 0.42976,-1.21414 0.95989,-1.21414c0.53013,0 0.95989,0.5436 0.95989,1.21414z" fill="#ffffff" stroke="none"/></g><path d="M82.14947,257.12513c0,6.59429 -5.71023,11.94004 -12.75415,11.94004c-7.04391,0 -12.75414,-5.34576 -12.75414,-11.94004c0,-6.59429 5.71023,-11.94004 12.75414,-11.94004c7.04391,0 12.75415,5.34576 12.75415,11.94004z" fill="#7fb749" stroke="#a4f200" stroke-width="1"/><path d="M93.09935,253.92479c0,6.59429 -5.71023,11.94004 -12.75414,11.94004c-7.04391,0 -12.75415,-5.34574 -12.75415,-11.94004c0,-6.59429 5.71024,-11.94004 12.75415,-11.94004c7.04391,0 12.75414,5.34576 12.75414,11.94004z" fill="#81f300" stroke="#7fb749" stroke-width="1"/><path d="M104.54181,249.60543c0,6.59429 -5.71023,11.94004 -12.75415,11.94004c-7.04391,0 -12.75414,-5.34576 -12.75414,-11.94004c0,-6.59429 5.71023,-11.94004 12.75414,-11.94004c7.04391,0 12.75415,5.34576 12.75415,11.94004z" fill="#7fb749" stroke="#a4f200" stroke-width="1"/><path d="M114.28597,248.04151c0,6.59429 -5.71023,11.94004 -12.75414,11.94004c-7.04391,0 -12.75415,-5.34576 -12.75415,-11.94004c0,-6.59429 5.71024,-11.94004 12.75415,-11.94004c7.04393,0 12.75414,5.34576 12.75414,11.94004z" fill="#81f300" stroke="#7fb749" stroke-width="1"/><path d="M119.48594,252.52853c0,6.59429 -5.71023,11.94004 -12.75414,11.94004c-7.04391,0 -12.75415,-5.34576 -12.75415,-11.94004c0,-6.59429 5.71023,-11.94004 12.75415,-11.94004c7.04393,0 12.75414,5.34576 12.75414,11.94004z" fill="#7fb749" stroke="#a4f200" stroke-width="1"/><path d="M124.3262,260.40315c0,6.59429 -5.71023,11.94004 -12.75414,11.94004c-7.04391,0 -12.75414,-5.34576 -12.75414,-11.94004c0,-6.59429 5.71023,-11.94004 12.75414,-11.94004c7.04393,0 12.75414,5.34576 12.75414,11.94004z" fill="#81f300" stroke="#7fb749" stroke-width="1"/><path d="M132.12458,260.84689c0,6.59429 -5.71023,11.94004 -12.75414,11.94004c-7.04393,0 -12.75414,-5.34576 -12.75414,-11.94004c0,-6.59429 5.71023,-11.94004 12.75414,-11.94004c7.04393,0 12.75414,5.34576 12.75414,11.94004z" fill="#7fb749" stroke="#a4f200" stroke-width="1"/><path d="M141.09395,260.13397c0,6.59429 -5.71023,11.94004 -12.75414,11.94004c-7.04393,0 -12.75414,-5.34576 -12.75414,-11.94004c0,-6.59429 5.71023,-11.94004 12.75414,-11.94004c7.04393,0 12.75414,5.34574 12.75414,11.94004z" fill="#81f300" stroke="#7fb749" stroke-width="1"/><path d="M149.34563,254.95782c0,6.59429 -5.71023,11.94004 -12.75415,11.94004c-7.04393,0 -12.75415,-5.34576 -12.75415,-11.94004c0,-6.59429 5.71023,-11.94004 12.75415,-11.94004c7.04393,0 12.75415,5.34576 12.75415,11.94004z" fill="#7fb749" stroke="#a4f200" stroke-width="1"/><path d="M156.80815,248.97352c0,6.59429 -5.71023,11.94004 -12.75414,11.94004c-7.04393,0 -12.75415,-5.34576 -12.75415,-11.94004c0,-6.59429 5.71023,-11.94004 12.75415,-11.94004c7.04393,0 12.75414,5.34576 12.75414,11.94004z" fill="#81f300" stroke="#7fb749" stroke-width="1"/><path d="M162.00811,242.21913c0,6.59429 -5.71024,11.94004 -12.75415,11.94004c-7.04393,0 -12.75414,-5.34576 -12.75414,-11.94004c0,-6.59429 5.71023,-11.94004 12.75414,-11.94004c7.04393,0 12.75415,5.34576 12.75415,11.94004z" fill="#7fb749" stroke="#a4f200" stroke-width="1"/><path d="M168.71486,240.67422c0,6.59429 -5.71023,11.94004 -12.75414,11.94004c-7.04393,0 -12.75415,-5.34574 -12.75415,-11.94004c0,-6.59429 5.71023,-11.94004 12.75415,-11.94004c7.04393,0 12.75414,5.34576 12.75414,11.94004z" fill="#81f300" stroke="#7fb749" stroke-width="1"/><path d="M172.64108,247.78502c-0.83804,2.79597 -5.7268,3.80087 -10.91935,2.24451c-5.19253,-1.55638 -8.72256,-5.08467 -7.88454,-7.88061c0.83804,-2.79597 5.7268,-3.80087 10.91935,-2.24451c5.19253,1.55638 8.72256,5.08467 7.88454,7.88061z" fill="#000000" stroke="#7fb749" stroke-width="0.5"/><path d="M78.4844,225.10626z" fill="#000000" stroke="#7fb749" stroke-width="1"/><g stroke-width="0"><path d="M157.84079,227.9415c0,3.00487 -2.43589,5.44076 -5.44076,5.44076c-3.00487,0 -5.44076,-2.43589 -5.44076,-5.44076c0,-3.00487 2.43589,-5.44076 5.44076,-5.44076c3.00487,0 5.44076,2.43589 5.44076,5.44076z" fill="#000000" stroke="#7fb749"/><path d="M155.57391,225.8066c0,1.39427 -1.08505,2.5245 -2.42353,2.5245c-1.33846,0 -2.42353,-1.13027 -2.42353,-2.5245c0,-1.39427 1.08505,-2.5245 2.42353,-2.5245c1.33846,0 2.42353,1.13027 2.42353,2.5245z" fill="#ffffff" stroke="none"/><path d="M157.13064,228.14671c0,0.71825 -0.46033,1.30051 -1.02817,1.30051c-0.56783,0 -1.02817,-0.58226 -1.02817,-1.30051c0,-0.71825 0.46033,-1.30051 1.02817,-1.30051c0.56783,0 1.02817,0.58226 1.02817,1.30051z" fill="#ffffff" stroke="none"/></g></g></g></svg>