<svg version="1.1" xmlns="http://www.w3.org/2000/svg" xmlns:xlink="http://www.w3.org/1999/xlink" width="29.16963" height="116.9951" viewBox="0,0,29.16963,116.9951"><defs><linearGradient x1="109.18145" y1="195.48584" x2="113.29018" y2="195.48584" gradientUnits="userSpaceOnUse" id="color-1"><stop offset="0" stop-color="#1a2600"/><stop offset="1" stop-color="#ffffff"/></linearGradient></defs><g transform="translate(-99.02667,-187.87608)"><g data-paper-data="{&quot;isPaintingLayer&quot;:true}" fill-rule="nonzero" stroke-linecap="butt" stroke-linejoin="miter" stroke-miterlimit="10" stroke-dasharray="" stroke-dashoffset="0" style="mix-blend-mode: normal"><path d="M111.02608,202.59559c1.12857,0.08637 2.13737,-3.02676 2.2532,-6.95337c0.11583,-3.9266 -0.70515,-7.17977 -1.83373,-7.26614c-1.12857,-0.08637 -2.13737,3.02677 -2.25321,6.95337c-0.11583,3.9266 0.70516,7.17977 1.83373,7.26614z" fill="#7fb749" stroke="url(#color-1)" stroke-width="1"/><path d="M117.32689,214.00354c2.61188,-2.85701 2.29578,-7.47247 -0.70605,-10.30889c-3.00183,-2.83641 -7.55267,-2.81973 -10.16456,0.03728c-2.61188,2.85701 -2.29577,7.47248 0.70607,10.3089c3.00185,2.83643 7.55266,2.81972 10.16455,-0.03729z" fill="#81f300" stroke="#7fb749" stroke-width="1"/><path d="M110.5077,224.08692c3.83422,0.13644 7.05871,-3.12842 7.20206,-7.29227c0.14336,-4.16384 -2.8487,-7.64993 -6.68292,-7.78636c-3.83421,-0.13644 -7.05872,3.12843 -7.20207,7.29227c-0.14336,4.16384 2.84871,7.64993 6.68293,7.78636z" fill="#7fb749" stroke="#a4f200" stroke-width="1"/><path d="M115.73173,228.29598c2.61188,-2.85701 2.29578,-7.47247 -0.70605,-10.30889c-3.00183,-2.83641 -7.55267,-2.81973 -10.16456,0.03728c-2.61188,2.85701 -2.29577,7.47248 0.70607,10.3089c3.00185,2.83643 7.55266,2.81972 10.16455,-0.03729z" fill="#81f300" stroke="#7fb749" stroke-width="1"/><path d="M115.95819,235.53245c2.61188,-2.85701 2.29577,-7.47247 -0.70607,-10.3089c-3.00184,-2.83641 -7.55267,-2.81972 -10.16455,0.03729c-2.61188,2.85701 -2.29578,7.47247 0.70605,10.3089c3.00184,2.83641 7.55268,2.81973 10.16456,-0.03728z" fill="#7fb749" stroke="#a4f200" stroke-width="1"/><path d="M117.23542,240.30676c2.61188,-2.85701 2.29578,-7.47247 -0.70605,-10.30888c-3.00184,-2.83641 -7.55268,-2.81973 -10.16456,0.03728c-2.61188,2.85701 -2.29577,7.47248 0.70607,10.3089c3.00185,2.83643 7.55267,2.81972 10.16455,-0.03729z" fill="#81f300" stroke="#7fb749" stroke-width="1"/><path d="M100.80586,234.93037z" fill="#000000" stroke="#7fb749" stroke-width="1"/><g stroke-width="0"><path d="M114.72155,302.8322c0.52494,-1.57117 -0.30233,-3.27744 -1.84776,-3.81111c-1.54544,-0.53368 -3.22377,0.30736 -3.7487,1.87853c-0.52494,1.57117 0.30233,3.27744 1.84776,3.81111c1.54544,0.53368 3.22377,-0.30736 3.7487,-1.87853z" fill="#000000" stroke="#7fb749"/><path d="M113.18272,303.54587c0.24357,-0.72902 -0.11704,-1.5127 -0.80541,-1.75041c-0.6884,-0.23772 -1.44388,0.16057 -1.68744,0.88956c-0.24357,0.72902 0.11704,1.5127 0.80541,1.75041c0.6884,0.23772 1.44388,-0.16057 1.68744,-0.88956z" fill="#ffffff" stroke="none"/><path d="M114.39216,302.59878c0.12548,-0.37556 -0.00956,-0.76175 -0.30161,-0.8626c-0.29205,-0.10085 -0.63051,0.12185 -0.75599,0.49739c-0.12548,0.37556 0.00956,0.76174 0.30161,0.8626c0.29205,0.10085 0.63051,-0.12185 0.75599,-0.49739z" fill="#ffffff" stroke="none"/></g><path d="M111.80427,249.40401c3.83422,0.13644 7.05871,-3.12842 7.20206,-7.29227c0.14336,-4.16384 -2.8487,-7.64992 -6.68292,-7.78635c-3.83422,-0.13644 -7.05871,3.12842 -7.20206,7.29226c-0.14336,4.16384 2.8487,7.64993 6.68292,7.78636z" fill="#7fb749" stroke="#a4f200" stroke-width="1"/><path d="M112.36067,255.81056c3.83422,0.13644 7.05871,-3.12842 7.20206,-7.29226c0.14336,-4.16384 -2.84869,-7.64993 -6.68292,-7.78636c-3.83422,-0.13644 -7.05871,3.12843 -7.20206,7.29227c-0.14336,4.16384 2.8487,7.64992 6.68292,7.78635z" fill="#81f300" stroke="#7fb749" stroke-width="1"/><path d="M113.38784,262.48513c3.83422,0.13644 7.05871,-3.12842 7.20206,-7.29227c0.14336,-4.16384 -2.8487,-7.64992 -6.68292,-7.78635c-3.83422,-0.13644 -7.05871,3.12842 -7.20206,7.29226c-0.14336,4.16384 2.8487,7.64993 6.68292,7.78636z" fill="#7fb749" stroke="#a4f200" stroke-width="1"/><path d="M113.41166,268.2128c3.83422,0.13644 7.05871,-3.12842 7.20206,-7.29226c0.14336,-4.16384 -2.8487,-7.64993 -6.68292,-7.78636c-3.83422,-0.13644 -7.05871,3.12843 -7.20206,7.29227c-0.14336,4.16385 2.8487,7.64992 6.68292,7.78635z" fill="#81f300" stroke="#7fb749" stroke-width="1"/><path d="M115.91479,271.37948c3.83422,0.13644 7.05871,-3.12842 7.20206,-7.29226c0.14336,-4.16384 -2.8487,-7.64993 -6.68292,-7.78636c-3.83422,-0.13644 -7.05871,3.12842 -7.20206,7.29227c-0.14336,4.16385 2.8487,7.64992 6.68292,7.78635z" fill="#7fb749" stroke="#a4f200" stroke-width="1"/><path d="M120.39494,274.40362c3.83422,0.13644 7.05871,-3.12842 7.20206,-7.29226c0.14336,-4.16384 -2.8487,-7.64992 -6.68292,-7.78635c-3.83422,-0.13644 -7.05871,3.12842 -7.20206,7.29226c-0.14336,4.16385 2.8487,7.64992 6.68292,7.78635z" fill="#81f300" stroke="#7fb749" stroke-width="1"/><path d="M120.49424,279.02263c3.83422,0.13644 7.05871,-3.12842 7.20206,-7.29226c0.14336,-4.16385 -2.8487,-7.64992 -6.68292,-7.78635c-3.83422,-0.13644 -7.05871,3.12842 -7.20206,7.29226c-0.14336,4.16385 2.8487,7.64992 6.68292,7.78635z" fill="#7fb749" stroke="#a4f200" stroke-width="1"/><path d="M119.89718,284.30991c3.83422,0.13644 7.05871,-3.12842 7.20206,-7.29226c0.14336,-4.16385 -2.8487,-7.64992 -6.68292,-7.78635c-3.83422,-0.13644 -7.05871,3.12842 -7.20206,7.29226c-0.14336,4.16385 2.84869,7.64992 6.68292,7.78635z" fill="#81f300" stroke="#7fb749" stroke-width="1"/><path d="M116.71959,289.0806c3.83422,0.13644 7.05871,-3.12842 7.20206,-7.29227c0.14336,-4.16385 -2.8487,-7.64993 -6.68292,-7.78636c-3.83422,-0.13644 -7.05871,3.12842 -7.20206,7.29227c-0.14336,4.16385 2.8487,7.64993 6.68292,7.78636z" fill="#7fb749" stroke="#a4f200" stroke-width="1"/><path d="M113.08816,293.36807c3.83422,0.13644 7.05871,-3.12842 7.20206,-7.29226c0.14336,-4.16385 -2.8487,-7.64993 -6.68292,-7.78636c-3.83422,-0.13644 -7.05871,3.12842 -7.20206,7.29227c-0.14336,4.16385 2.8487,7.64992 6.68292,7.78635z" fill="#81f300" stroke="#7fb749" stroke-width="1"/><path d="M109.05502,296.30216c3.83422,0.13644 7.05871,-3.12843 7.20206,-7.29227c0.14336,-4.16385 -2.8487,-7.64992 -6.68292,-7.78635c-3.83422,-0.13644 -7.05871,3.12842 -7.20206,7.29226c-0.14336,4.16385 2.8487,7.64993 6.68292,7.78636z" fill="#7fb749" stroke="#a4f200" stroke-width="1"/><path d="M108.02025,300.23472c3.83422,0.13644 7.05871,-3.12842 7.20206,-7.29226c0.14336,-4.16385 -2.84869,-7.64993 -6.68292,-7.78636c-3.83422,-0.13644 -7.05871,3.12842 -7.20206,7.29227c-0.14336,4.16385 2.8487,7.64992 6.68292,7.78635z" fill="#81f300" stroke="#7fb749" stroke-width="1"/><path d="M111.19488,298.39664c0.55632,0.18577 1.27779,-0.5312 1.61147,-1.6014c0.33366,-1.0702 0.15318,-2.08837 -0.40314,-2.27415c-0.55632,-0.18577 -1.27779,0.5312 -1.61147,1.6014c-0.33366,1.0702 -0.15318,2.08837 0.40314,2.27415z" fill="#000000" stroke="#7fb749" stroke-width="0.5"/><path d="M100.80467,246.575z" fill="#000000" stroke="#7fb749" stroke-width="1"/><path d="M99.63824,276.47822c0.1928,0.00686 0.35501,-0.15972 0.36233,-0.37205c0.00731,-0.21234 -0.14305,-0.39004 -0.33585,-0.3969c-0.1928,-0.00686 -0.35501,0.15972 -0.36233,0.37205c-0.00731,0.21234 0.14305,0.39004 0.33585,0.3969z" fill="#d4d4d4" stroke="none" stroke-width="0"/><g stroke-width="0"><path d="M105.17381,293.14725c0.58831,-1.67369 -0.26933,-3.51531 -1.91562,-4.11341c-1.64628,-0.59811 -3.45775,0.27382 -4.04605,1.94751c-0.58831,1.67369 0.26933,3.51531 1.91562,4.11341c1.64628,0.59811 3.45775,-0.27382 4.04605,-1.94751z" fill="#000000" stroke="#7fb749"/><path d="M103.51387,293.88516c0.27298,-0.7766 -0.10021,-1.6221 -0.83353,-1.88852c-0.7333,-0.26641 -1.54907,0.14716 -1.82204,0.92374c-0.27298,0.7766 0.10021,1.6221 0.83353,1.88852c0.7333,0.26641 1.54907,-0.14716 1.82204,-0.92374z" fill="#ffffff" stroke="none"/><path d="M104.82492,292.8916c0.14062,-0.40006 0.00242,-0.816 -0.30869,-0.92903c-0.31109,-0.11302 -0.6773,0.11967 -0.81792,0.51972c-0.14062,0.40006 -0.00242,0.816 0.30869,0.92903c0.31109,0.11302 0.6773,-0.11967 0.81792,-0.51972z" fill="#ffffff" stroke="none"/></g></g></g></svg>