<svg version="1.1" xmlns="http://www.w3.org/2000/svg" xmlns:xlink="http://www.w3.org/1999/xlink" width="224.94385" height="64.7862" viewBox="0,0,224.94385,64.7862"><g transform="translate(-8.48405,-208.50073)"><g data-paper-data="{&quot;isPaintingLayer&quot;:true}" fill-rule="nonzero" stroke-linecap="butt" stroke-linejoin="miter" stroke-miterlimit="10" stroke-dasharray="" stroke-dashoffset="0" style="mix-blend-mode: normal"><path d="M41.59403,247.262c0,8.43018 -7.29999,15.26423 -16.30499,15.26423c-9.00498,0 -16.30499,-6.83405 -16.30499,-15.26423c0,-8.43016 7.30001,-15.26425 16.30499,-15.26425c9.00498,0 16.30499,6.83407 16.30499,15.26425z" fill="#7fb749" stroke="#a4f200" stroke-width="1"/><path d="M48.70236,258.3599c-6.37195,5.51963 -16.3171,4.47652 -22.21308,-2.32987c-5.89596,-6.80639 -5.51013,-16.79867 0.86182,-22.31832c6.37195,-5.51963 16.31712,-4.4765 22.2131,2.32993c5.896,6.80643 5.51011,16.79865 -0.86184,22.31828z" fill="#81f300" stroke="#7fb749" stroke-width="1"/><path d="M63.99373,234.78044c0,8.43018 -7.29999,15.26423 -16.30499,15.26423c-9.00498,0 -16.30499,-6.83405 -16.30499,-15.26423c0,-8.43016 7.30001,-15.26425 16.30499,-15.26425c9.00498,0 16.30499,6.83407 16.30499,15.26425z" fill="#7fb749" stroke="#a4f200" stroke-width="1"/><path d="M71.98513,243.22913c-6.37195,5.51963 -16.3171,4.47652 -22.21308,-2.32987c-5.89596,-6.80639 -5.51013,-16.79867 0.86182,-22.31832c6.37195,-5.51963 16.31712,-4.4765 22.2131,2.32993c5.896,6.80643 5.51011,16.79865 -0.86184,22.31828z" fill="#81f300" stroke="#7fb749" stroke-width="1"/><path d="M87.36668,250.89931c-6.37195,5.51963 -16.3171,4.4765 -22.2131,-2.32993c-5.89596,-6.80641 -5.51011,-16.79867 0.86184,-22.31828c6.37195,-5.51963 16.3171,-4.47652 22.2131,2.32989c5.89596,6.80641 5.51013,16.79869 -0.86182,22.31832z" fill="#7fb749" stroke="#a4f200" stroke-width="1"/><path d="M96.59249,259.00582c-6.37195,5.51963 -16.3171,4.47652 -22.21306,-2.32989c-5.89596,-6.80641 -5.51013,-16.79869 0.86182,-22.31832c6.37195,-5.51963 16.31712,-4.4765 22.2131,2.32993c5.896,6.80643 5.51011,16.79867 -0.86184,22.31828z" fill="#81f300" stroke="#7fb749" stroke-width="1"/><path d="M87.46277,210.95385z" fill="#000000" stroke="#7fb749" stroke-width="1"/><g stroke-width="0"><path d="M231.66636,217.07626c0,3.58637 -2.90726,6.49363 -6.49363,6.49363c-3.58637,0 -6.49363,-2.90726 -6.49363,-6.49363c0,-3.58637 2.90726,-6.49363 6.49363,-6.49363c3.58637,0 6.49363,2.90726 6.49363,6.49363z" fill="#000000" stroke="#7fb749"/><path d="M228.96079,214.52824c0,1.66408 -1.29502,3.01302 -2.89249,3.01302c-1.59751,0 -2.89249,-1.349 -2.89249,-3.01302c0,-1.66408 1.29502,-3.01302 2.89249,-3.01302c1.59751,0 2.89249,1.349 2.89249,3.01302z" fill="#ffffff" stroke="none"/><path d="M230.81878,217.32117c0,0.85725 -0.54941,1.55218 -1.22713,1.55218c-0.67773,0 -1.22713,-0.69495 -1.22713,-1.55218c0,-0.85725 0.54941,-1.55216 1.22713,-1.55216c0.67773,0 1.22713,0.69495 1.22713,1.55216z" fill="#ffffff" stroke="none"/></g><path d="M117.30088,252.76478c0,8.43018 -7.29999,15.26423 -16.30499,15.26423c-9.00498,0 -16.30497,-6.83405 -16.30497,-15.26423c0,-8.43018 7.29999,-15.26423 16.30497,-15.26423c9.00498,0 16.30499,6.83405 16.30499,15.26423z" fill="#7fb749" stroke="#a4f200" stroke-width="1"/><path d="M131.29928,248.67345c0,8.43018 -7.29999,15.26423 -16.30497,15.26423c-9.00498,0 -16.30499,-6.83403 -16.30499,-15.26423c0,-8.43018 7.30001,-15.26423 16.30499,-15.26423c9.00498,0 16.30497,6.83405 16.30497,15.26423z" fill="#81f300" stroke="#7fb749" stroke-width="1"/><path d="M145.92739,243.15154c0,8.43018 -7.29999,15.26423 -16.30499,15.26423c-9.00498,0 -16.30497,-6.83405 -16.30497,-15.26423c0,-8.43018 7.29999,-15.26423 16.30497,-15.26423c9.00498,0 16.30499,6.83405 16.30499,15.26423z" fill="#7fb749" stroke="#a4f200" stroke-width="1"/><path d="M158.38438,241.15222c0,8.43018 -7.29999,15.26423 -16.30497,15.26423c-9.00498,0 -16.30499,-6.83405 -16.30499,-15.26423c0,-8.43018 7.30001,-15.26423 16.30499,-15.26423c9.005,0 16.30497,6.83405 16.30497,15.26423z" fill="#81f300" stroke="#7fb749" stroke-width="1"/><path d="M165.03206,246.88847c0,8.43018 -7.29999,15.26423 -16.30497,15.26423c-9.00498,0 -16.30499,-6.83405 -16.30499,-15.26423c0,-8.43018 7.29999,-15.26423 16.30499,-15.26423c9.005,0 16.30497,6.83405 16.30497,15.26423z" fill="#7fb749" stroke="#a4f200" stroke-width="1"/><path d="M171.21988,256.95542c0,8.43018 -7.29999,15.26423 -16.30497,15.26423c-9.00498,0 -16.30497,-6.83405 -16.30497,-15.26423c0,-8.43018 7.29999,-15.26423 16.30497,-15.26423c9.005,0 16.30497,6.83405 16.30497,15.26423z" fill="#81f300" stroke="#7fb749" stroke-width="1"/><path d="M181.18937,257.5227c0,8.43018 -7.29999,15.26423 -16.30497,15.26423c-9.005,0 -16.30497,-6.83405 -16.30497,-15.26423c0,-8.43018 7.29999,-15.26423 16.30497,-15.26423c9.005,0 16.30497,6.83405 16.30497,15.26423z" fill="#7fb749" stroke="#a4f200" stroke-width="1"/><path d="M192.65588,256.61131c0,8.43018 -7.29999,15.26423 -16.30497,15.26423c-9.005,0 -16.30497,-6.83405 -16.30497,-15.26423c0,-8.43018 7.29999,-15.26423 16.30497,-15.26423c9.005,0 16.30497,6.83403 16.30497,15.26423z" fill="#81f300" stroke="#7fb749" stroke-width="1"/><path d="M203.20488,249.99408c0,8.43018 -7.29999,15.26423 -16.30499,15.26423c-9.005,0 -16.30499,-6.83405 -16.30499,-15.26423c0,-8.43018 7.29999,-15.26423 16.30499,-15.26423c9.005,0 16.30499,6.83405 16.30499,15.26423z" fill="#7fb749" stroke="#a4f200" stroke-width="1"/><path d="M212.74501,242.34371c0,8.43018 -7.29999,15.26423 -16.30497,15.26423c-9.005,0 -16.30499,-6.83405 -16.30499,-15.26423c0,-8.43018 7.29999,-15.26423 16.30499,-15.26423c9.005,0 16.30497,6.83405 16.30497,15.26423z" fill="#81f300" stroke="#7fb749" stroke-width="1"/><path d="M219.39267,233.70885c0,8.43018 -7.30001,15.26423 -16.30499,15.26423c-9.005,0 -16.30497,-6.83405 -16.30497,-15.26423c0,-8.43018 7.29999,-15.26423 16.30497,-15.26423c9.005,0 16.30499,6.83405 16.30499,15.26423z" fill="#7fb749" stroke="#a4f200" stroke-width="1"/><path d="M227.96663,231.73384c0,8.43018 -7.29999,15.26423 -16.30497,15.26423c-9.005,0 -16.30499,-6.83403 -16.30499,-15.26423c0,-8.43018 7.29999,-15.26423 16.30499,-15.26423c9.005,0 16.30497,6.83405 16.30497,15.26423z" fill="#81f300" stroke="#7fb749" stroke-width="1"/><path d="M233.03545,233.78864c1.02092,3.58912 -3.55493,8.0357 -10.22047,9.93173c-6.66554,1.89601 -12.89665,0.52345 -13.91759,-3.06561c-1.02092,-3.58912 3.55493,-8.0357 10.22047,-9.93173c6.66554,-1.89601 12.89665,-0.52345 13.91759,3.06561z" fill="#000000" stroke="#7fb749" stroke-width="0.5"/><path d="M112.61543,211.83165z" fill="#000000" stroke="#7fb749" stroke-width="1"/><g stroke-width="0"><path d="M214.06515,215.45624c0,3.84145 -3.11406,6.95551 -6.95551,6.95551c-3.84145,0 -6.95551,-3.11406 -6.95551,-6.95551c0,-3.84145 3.11406,-6.95551 6.95551,-6.95551c3.84145,0 6.95551,3.11406 6.95551,6.95551z" fill="#000000" stroke="#7fb749"/><path d="M211.16715,212.72698c0,1.78244 -1.38714,3.22734 -3.09826,3.22734c-1.7111,0 -3.09826,-1.44494 -3.09826,-3.22734c0,-1.78244 1.38714,-3.22734 3.09826,-3.22734c1.7111,0 3.09826,1.44494 3.09826,3.22734z" fill="#ffffff" stroke="none"/><path d="M213.15728,215.71859c0,0.91822 -0.58849,1.66258 -1.31442,1.66258c-0.72591,0 -1.31442,-0.74436 -1.31442,-1.66258c0,-0.91822 0.58849,-1.66258 1.31442,-1.66258c0.72591,0 1.31442,0.74436 1.31442,1.66258z" fill="#ffffff" stroke="none"/></g></g></g></svg>