<svg version="1.1" xmlns="http://www.w3.org/2000/svg" xmlns:xlink="http://www.w3.org/1999/xlink" width="49.01343" height="97.18807" viewBox="0,0,49.01343,97.18807"><defs><linearGradient x1="109.18146" y1="195.48584" x2="113.29019" y2="195.48584" gradientUnits="userSpaceOnUse" id="color-1"><stop offset="0" stop-color="#1a2600"/><stop offset="1" stop-color="#ffffff"/></linearGradient><linearGradient x1="91.01765" y1="242.31692" x2="139.72852" y2="243.50747" gradientUnits="userSpaceOnUse" id="color-2"><stop offset="0" stop-color="#ded900"/><stop offset="1" stop-color="#57de47"/></linearGradient><linearGradient x1="93.25321" y1="245.44767" x2="137.49305" y2="240.37676" gradientUnits="userSpaceOnUse" id="color-3"><stop offset="0" stop-color="#1a2600"/><stop offset="1" stop-color="#ffffff"/></linearGradient></defs><g transform="translate(-90.86637,-187.87432)"><g data-paper-data="{&quot;isPaintingLayer&quot;:true}" fill-rule="nonzero" stroke-linecap="butt" stroke-linejoin="miter" stroke-miterlimit="10" stroke-dasharray="" stroke-dashoffset="0" style="mix-blend-mode: normal"><path d="M132.73369,283.18056c-3.91192,1.43354 -8.14996,-0.32592 -9.4659,-3.92983c-1.31596,-3.60391 0.78851,-7.68758 4.70044,-9.12111c3.91192,-1.43354 8.14995,0.32592 9.46589,3.92983c1.31595,3.6039 -0.7885,7.68758 -4.70043,9.12111z" fill="#81f300" stroke="#7fb749" stroke-width="1"/><path d="M111.02608,202.59559c-1.12857,-0.08637 -1.94956,-3.33954 -1.83373,-7.26614c0.11584,-3.9266 1.12464,-7.03974 2.25321,-6.95337c1.12858,0.08637 1.94956,3.33954 1.83373,7.26614c-0.11583,3.92661 -1.12463,7.03974 -2.2532,6.95337z" fill="#7fb749" stroke="url(#color-1)" stroke-width="1"/><path d="M117.32691,214.00354c-2.61189,2.85701 -7.1627,2.87372 -10.16455,0.03729c-3.00184,-2.83642 -3.31795,-7.45189 -0.70607,-10.3089c2.61189,-2.85701 7.16273,-2.87369 10.16456,-0.03728c3.00183,2.83642 3.31793,7.45188 0.70605,10.30889z" fill="#81f300" stroke="#7fb749" stroke-width="1"/><path d="M103.82478,216.30056c0.14335,-4.16384 3.36786,-7.42871 7.20207,-7.29227c3.83422,0.13643 6.82628,3.62252 6.68292,7.78636c-0.14335,4.16385 -3.36784,7.42871 -7.20206,7.29227c-3.83422,-0.13643 -6.82629,-3.62252 -6.68293,-7.78636z" fill="#7fb749" stroke="#a4f200" stroke-width="1"/><path d="M115.73175,228.29598c-2.61189,2.85701 -7.1627,2.87372 -10.16455,0.03729c-3.00184,-2.83642 -3.31795,-7.45189 -0.70607,-10.3089c2.61189,-2.85701 7.16273,-2.87369 10.16456,-0.03728c3.00183,2.83642 3.31793,7.45188 0.70605,10.30889z" fill="#81f300" stroke="#7fb749" stroke-width="1"/><path d="M115.95819,235.53246c-2.61188,2.85701 -7.16272,2.87369 -10.16456,0.03728c-3.00183,-2.83643 -3.31793,-7.45189 -0.70605,-10.3089c2.61188,-2.85701 7.16271,-2.8737 10.16455,-0.03729c3.00184,2.83643 3.31795,7.45189 0.70607,10.3089z" fill="#7fb749" stroke="#a4f200" stroke-width="1"/><path d="M113.08675,240.30677c-2.61188,2.85701 -7.1627,2.87372 -10.16455,0.03729c-3.00184,-2.83642 -3.31795,-7.45189 -0.70607,-10.3089c2.61188,-2.85701 7.16272,-2.87369 10.16456,-0.03728c3.00183,2.83641 3.31793,7.45187 0.70605,10.30888z" fill="#81f300" stroke="#7fb749" stroke-width="1"/><path d="M100.80587,234.93037z" fill="#000000" stroke="#7fb749" stroke-width="1"/><path d="M94.93823,241.61765c0.14335,-4.16384 3.36784,-7.4287 7.20206,-7.29226c3.83422,0.13643 6.82628,3.62251 6.68292,7.78635c-0.14335,4.16385 -3.36784,7.42871 -7.20206,7.29227c-3.83422,-0.13643 -6.82628,-3.62252 -6.68292,-7.78636z" fill="#7fb749" stroke="#a4f200" stroke-width="1"/><path d="M99.26616,248.02421c0.14335,-4.16384 3.36784,-7.42871 7.20206,-7.29227c3.83423,0.13643 6.82628,3.62252 6.68292,7.78636c-0.14335,4.16384 -3.36784,7.4287 -7.20206,7.29226c-3.83422,-0.13643 -6.82628,-3.62251 -6.68292,-7.78635z" fill="#81f300" stroke="#7fb749" stroke-width="1"/><path d="M100.67048,252.43585c0.14335,-4.16384 3.36784,-7.4287 7.20206,-7.29226c3.83422,0.13643 6.82628,3.62251 6.68292,7.78635c-0.14335,4.16385 -3.36784,7.42871 -7.20206,7.29227c-3.83422,-0.13643 -6.82628,-3.62252 -6.68292,-7.78636z" fill="#7fb749" stroke="#a4f200" stroke-width="1"/><path d="M101.82576,257.40922c0.14335,-4.16384 3.36784,-7.42871 7.20206,-7.29227c3.83422,0.13643 6.82628,3.62252 6.68292,7.78636c-0.14335,4.16384 -3.36784,7.4287 -7.20206,7.29226c-3.83422,-0.13643 -6.82628,-3.6225 -6.68292,-7.78635z" fill="#81f300" stroke="#7fb749" stroke-width="1"/><path d="M101.31166,261.70736c0.14335,-4.16385 3.36784,-7.42871 7.20206,-7.29227c3.83422,0.13643 6.82628,3.62252 6.68292,7.78636c-0.14335,4.16384 -3.36784,7.4287 -7.20206,7.29226c-3.83422,-0.13643 -6.82628,-3.6225 -6.68292,-7.78635z" fill="#7fb749" stroke="#a4f200" stroke-width="1"/><path d="M100.13452,251.53115c0.14335,-4.16384 3.36784,-7.4287 7.20206,-7.29226c3.83422,0.13643 6.82628,3.62251 6.68292,7.78635c-0.14335,4.16384 -3.36784,7.4287 -7.20206,7.29226c-3.83422,-0.13643 -6.82628,-3.6225 -6.68292,-7.78635z" fill="#81f300" stroke="#7fb749" stroke-width="1"/><path d="M102.11959,256.15016c0.14335,-4.16384 3.36784,-7.4287 7.20206,-7.29226c3.83422,0.13643 6.82628,3.6225 6.68292,7.78635c-0.14335,4.16384 -3.36784,7.4287 -7.20206,7.29226c-3.83422,-0.13643 -6.82628,-3.6225 -6.68292,-7.78635z" fill="#7fb749" stroke="#a4f200" stroke-width="1"/><path d="M101.89968,261.43744c0.14335,-4.16384 3.36784,-7.4287 7.20206,-7.29226c3.83422,0.13643 6.82628,3.6225 6.68292,7.78635c-0.14335,4.16384 -3.36784,7.4287 -7.20206,7.29226c-3.83423,-0.13643 -6.82628,-3.6225 -6.68292,-7.78635z" fill="#81f300" stroke="#7fb749" stroke-width="1"/><path d="M101.73931,267.71673c0.14335,-4.16385 3.36784,-7.42871 7.20206,-7.29227c3.83422,0.13643 6.82628,3.62251 6.68292,7.78636c-0.14335,4.16385 -3.36784,7.42871 -7.20206,7.29227c-3.83422,-0.13643 -6.82628,-3.62251 -6.68292,-7.78636z" fill="#7fb749" stroke="#a4f200" stroke-width="1"/><path d="M106.40525,270.87275c0.14335,-4.16385 3.36784,-7.42871 7.20206,-7.29227c3.83422,0.13643 6.82628,3.62251 6.68292,7.78636c-0.14335,4.16384 -3.36784,7.4287 -7.20206,7.29226c-3.83422,-0.13643 -6.82628,-3.6225 -6.68292,-7.78635z" fill="#81f300" stroke="#7fb749" stroke-width="1"/><path d="M110.92976,278.23102c-2.50903,-3.32609 -2.05785,-7.8926 1.00773,-10.19957c3.06557,-2.30697 7.58471,-1.48082 10.09374,1.84528c2.50903,3.32609 2.05785,7.89261 -1.00773,10.19958c-3.06557,2.30697 -7.58471,1.48081 -10.09375,-1.84529z" fill="#7fb749" stroke="#a4f200" stroke-width="1"/><path d="M100.80468,246.575z" fill="#000000" stroke="#7fb749" stroke-width="1"/><path d="M96.66233,261.37236c0.00732,-0.21233 0.16953,-0.37891 0.36233,-0.37205c0.1928,0.00686 0.34316,0.18456 0.33585,0.3969c-0.00732,0.21233 -0.16953,0.37891 -0.36233,0.37205c-0.1928,-0.00686 -0.34316,-0.18456 -0.33585,-0.3969z" fill="#d4d4d4" stroke="none" stroke-width="0"/><path d="M124.37009,284.53058c-12.28835,0.8904 -26.27823,-17.02097 -31.24722,-40.00613c-4.96886,-22.98514 0.96478,-42.34026 13.25315,-43.23067c12.28847,-0.89042 26.27824,17.02097 31.24722,40.00613c4.96899,22.9852 -0.96469,42.34024 -13.25305,43.23065z" fill="url(#color-2)" stroke="url(#color-3)" stroke-width="1"/><g stroke-width="0"><path d="M139.65431,270.25988c0.24236,0.13412 -0.53585,1.16275 -1.73824,2.29754c-1.20238,1.13479 -2.37355,1.94598 -2.61591,1.81185c-0.24236,-0.13412 0.53585,-1.16275 1.73824,-2.29754c1.20238,-1.13479 2.37355,-1.94598 2.61591,-1.81185z" fill="#000000" stroke="#7fb749"/><path d="M139.28111,270.52149c0.10795,0.05974 -0.25678,0.53501 -0.81469,1.06155c-0.55788,0.52652 -1.09766,0.90494 -1.20562,0.84519c-0.10795,-0.05974 0.25678,-0.53501 0.81469,-1.06155c0.55788,-0.52652 1.09766,-0.90494 1.20562,-0.84519z" fill="#ffffff" stroke="none"/><path d="M137.61688,271.73569c0.04579,0.02535 -0.15004,0.26577 -0.43745,0.53702c-0.2874,0.27124 -0.55751,0.47058 -0.60331,0.44524c-0.0458,-0.02535 0.15004,-0.26577 0.43745,-0.53702c0.2874,-0.27124 0.55751,-0.47058 0.60331,-0.44524z" fill="#ffffff" stroke="none"/></g><g stroke-width="0"><path d="M131.4939,280.0348c0.17631,0.09258 -0.72289,1.1564 -2.00842,2.37611c-1.28553,1.21971 -2.47056,2.13342 -2.64686,2.04083c-0.17631,-0.09258 0.72289,-1.1564 2.00842,-2.37611c1.28553,-1.21971 2.47056,-2.13342 2.64686,-2.04083z" fill="#000000" stroke="#7fb749"/><path d="M131.1156,280.32884c0.07853,0.04124 -0.34134,0.53345 -0.93783,1.0994c-0.59647,0.56594 -1.14368,0.99129 -1.22221,0.95005c-0.07853,-0.04124 0.34134,-0.53345 0.93783,-1.0994c0.59647,-0.56594 1.14368,-0.99129 1.22221,-0.95005z" fill="#ffffff" stroke="none"/><path d="M129.41762,281.68459c0.03332,0.0175 -0.18878,0.26803 -0.49606,0.55958c-0.30727,0.29154 -0.58338,0.5137 -0.6167,0.49621c-0.03332,-0.0175 0.18878,-0.26803 0.49606,-0.55958c0.30727,-0.29154 0.58338,-0.5137 0.6167,-0.49621z" fill="#ffffff" stroke="none"/></g></g></g></svg>