<svg version="1.1" xmlns="http://www.w3.org/2000/svg" xmlns:xlink="http://www.w3.org/1999/xlink" width="105.83884" height="39.3481" viewBox="0,0,105.83884,39.3481"><g transform="translate(-27.98331,-233.93884)"><g data-paper-data="{&quot;isPaintingLayer&quot;:true}" fill-rule="nonzero" stroke-linecap="butt" stroke-linejoin="miter" stroke-miterlimit="10" stroke-dasharray="" stroke-dashoffset="0" style="mix-blend-mode: normal"><path d="M44.4335,263.02892c-3.85056,3.3355 -9.86041,2.70514 -13.42335,-1.40797c-3.56293,-4.1131 -3.32975,-10.15142 0.52081,-13.48692c3.85056,-3.3355 9.86041,-2.70516 13.42335,1.40795c3.56293,4.1131 3.32977,10.15143 -0.5208,13.48695z" fill="#7fb749" stroke="#a4f200" stroke-width="1"/><path d="M50.27547,267.92767c-3.85056,3.3355 -9.86041,2.70516 -13.42333,-1.40795c-3.56293,-4.1131 -3.32977,-10.15143 0.5208,-13.48695c3.85056,-3.3355 9.86042,-2.70514 13.42335,1.40797c3.56294,4.11312 3.32975,10.15142 -0.52081,13.48692z" fill="#81f300" stroke="#7fb749" stroke-width="1"/><path d="M45.55885,235.42127z" fill="#000000" stroke="#7fb749" stroke-width="1"/><g stroke-width="0"><path d="M132.70092,239.12104c0,2.16724 -1.75686,3.92409 -3.92409,3.92409c-2.16724,0 -3.92409,-1.75686 -3.92409,-3.92409c0,-2.16724 1.75686,-3.92409 3.92409,-3.92409c2.16724,0 3.92409,1.75686 3.92409,3.92409z" fill="#000000" stroke="#7fb749"/><path d="M131.06596,237.58127c0,1.0056 -0.78258,1.82077 -1.74794,1.82077c-0.96537,0 -1.74794,-0.8152 -1.74794,-1.82077c0,-1.0056 0.78258,-1.82077 1.74794,-1.82077c0.96537,0 1.74794,0.8152 1.74794,1.82077z" fill="#ffffff" stroke="none"/><path d="M132.18874,239.26904c0,0.51803 -0.33201,0.93798 -0.74155,0.93798c-0.40954,0 -0.74155,-0.41995 -0.74155,-0.93798c0,-0.51803 0.33201,-0.93797 0.74155,-0.93797c0.40954,0 0.74155,0.41995 0.74155,0.93797z" fill="#ffffff" stroke="none"/></g><path d="M63.58998,260.68758c0,5.09435 -4.41138,9.22416 -9.8531,9.22416c-5.4417,0 -9.85308,-4.12981 -9.85308,-9.22416c0,-5.09435 4.41138,-9.22416 9.85308,-9.22416c5.4417,0 9.8531,4.12981 9.8531,9.22416z" fill="#7fb749" stroke="#a4f200" stroke-width="1"/><path d="M73.3833,259.54929c0,5.09435 -4.41138,9.22416 -9.85308,9.22416c-5.4417,0 -9.8531,-4.1298 -9.8531,-9.22416c0,-5.09435 4.4114,-9.22416 9.8531,-9.22416c5.4417,0 9.85308,4.12981 9.85308,9.22416z" fill="#81f300" stroke="#7fb749" stroke-width="1"/><path d="M80.88896,254.87831c0,5.09435 -4.41138,9.22416 -9.8531,9.22416c-5.4417,0 -9.85308,-4.12981 -9.85308,-9.22416c0,-5.09435 4.41138,-9.22416 9.85308,-9.22416c5.4417,0 9.8531,4.12981 9.8531,9.22416z" fill="#7fb749" stroke="#a4f200" stroke-width="1"/><path d="M88.41669,253.67011c0,5.09435 -4.41138,9.22416 -9.85308,9.22416c-5.4417,0 -9.8531,-4.12981 -9.8531,-9.22416c0,-5.09435 4.4114,-9.22416 9.8531,-9.22416c5.44171,0 9.85308,4.12981 9.85308,9.22416z" fill="#81f300" stroke="#7fb749" stroke-width="1"/><path d="M92.4339,257.13652c0,5.09435 -4.41138,9.22416 -9.85308,9.22416c-5.4417,0 -9.8531,-4.12981 -9.8531,-9.22416c0,-5.09435 4.41138,-9.22416 9.8531,-9.22416c5.44171,0 9.85308,4.12981 9.85308,9.22416z" fill="#7fb749" stroke="#a4f200" stroke-width="1"/><path d="M96.43999,262.95314c0,5.09435 -4.41138,9.22416 -9.85308,9.22416c-5.4417,0 -9.85308,-4.12981 -9.85308,-9.22416c0,-5.09435 4.41138,-9.22416 9.85308,-9.22416c5.44171,0 9.85308,4.12981 9.85308,9.22416z" fill="#81f300" stroke="#7fb749" stroke-width="1"/><path d="M102.19774,263.56279c0,5.09435 -4.41138,9.22416 -9.85308,9.22416c-5.44171,0 -9.85308,-4.12981 -9.85308,-9.22416c0,-5.09435 4.41138,-9.22416 9.85308,-9.22416c5.44171,0 9.85308,4.12981 9.85308,9.22416z" fill="#7fb749" stroke="#a4f200" stroke-width="1"/><path d="M109.12694,263.01203c0,5.09435 -4.41138,9.22416 -9.85308,9.22416c-5.44171,0 -9.85308,-4.12981 -9.85308,-9.22416c0,-5.09435 4.41138,-9.22416 9.85308,-9.22416c5.44171,0 9.85308,4.1298 9.85308,9.22416z" fill="#81f300" stroke="#7fb749" stroke-width="1"/><path d="M115.50169,259.01324c0,5.09435 -4.41138,9.22416 -9.8531,9.22416c-5.44171,0 -9.8531,-4.12981 -9.8531,-9.22416c0,-5.09435 4.41138,-9.22416 9.8531,-9.22416c5.44171,0 9.8531,4.12981 9.8531,9.22416z" fill="#7fb749" stroke="#a4f200" stroke-width="1"/><path d="M121.26678,254.39013c0,5.09435 -4.41138,9.22416 -9.85308,9.22416c-5.44171,0 -9.8531,-4.12981 -9.8531,-9.22416c0,-5.09435 4.41138,-9.22416 9.8531,-9.22416c5.44171,0 9.85308,4.12981 9.85308,9.22416z" fill="#81f300" stroke="#7fb749" stroke-width="1"/><path d="M125.28396,249.17209c0,5.09435 -4.4114,9.22416 -9.8531,9.22416c-5.44171,0 -9.85308,-4.12981 -9.85308,-9.22416c0,-5.09435 4.41138,-9.22416 9.85308,-9.22416c5.44171,0 9.8531,4.12981 9.8531,9.22416z" fill="#7fb749" stroke="#a4f200" stroke-width="1"/><path d="M130.46519,247.9786c0,5.09435 -4.41138,9.22416 -9.85308,9.22416c-5.44171,0 -9.8531,-4.1298 -9.8531,-9.22416c0,-5.09435 4.41138,-9.22416 9.8531,-9.22416c5.44171,0 9.85308,4.12981 9.85308,9.22416z" fill="#81f300" stroke="#7fb749" stroke-width="1"/><path d="M133.47303,249.38063c0.64169,2.03345 -1.89952,4.64796 -5.67593,5.83967c-3.77642,1.19171 -7.35801,0.50933 -7.9997,-1.52409c-0.64169,-2.03345 1.89952,-4.64796 5.67593,-5.83967c3.77642,-1.19171 7.35801,-0.50933 7.9997,1.52409z" fill="#000000" stroke="#7fb749" stroke-width="0.5"/><path d="M60.75858,235.95173z" fill="#000000" stroke="#7fb749" stroke-width="1"/><g stroke-width="0"><path d="M122.06454,238.14206c0,2.32138 -1.88183,4.20321 -4.20321,4.20321c-2.32138,0 -4.20321,-1.88183 -4.20321,-4.20321c0,-2.32138 1.88183,-4.20321 4.20321,-4.20321c2.32138,0 4.20321,1.88183 4.20321,4.20321z" fill="#000000" stroke="#7fb749"/><path d="M120.31328,236.49277c0,1.07712 -0.83824,1.95028 -1.87227,1.95028c-1.03402,0 -1.87227,-0.87317 -1.87227,-1.95028c0,-1.07712 0.83824,-1.95028 1.87227,-1.95028c1.03402,0 1.87227,0.87317 1.87227,1.95028z" fill="#ffffff" stroke="none"/><path d="M121.51591,238.3006c0,0.55488 -0.35563,1.00469 -0.7943,1.00469c-0.43867,0 -0.7943,-0.44982 -0.7943,-1.00469c0,-0.55488 0.35563,-1.00469 0.7943,-1.00469c0.43867,0 0.7943,0.44982 0.7943,1.00469z" fill="#ffffff" stroke="none"/></g></g></g></svg>