<svg version="1.1" xmlns="http://www.w3.org/2000/svg" xmlns:xlink="http://www.w3.org/1999/xlink" width="58.76412" height="25.98439" viewBox="0,0,58.76412,25.98439"><g transform="translate(-38.16356,-248.59184)"><g data-paper-data="{&quot;isPaintingLayer&quot;:true}" fill-rule="nonzero" stroke-linecap="butt" stroke-linejoin="miter" stroke-miterlimit="10" stroke-dasharray="" stroke-dashoffset="0" style="mix-blend-mode: normal"><g stroke-width="0"><path d="M96.92768,251.99136c0,1.42171 -1.1525,2.57421 -2.57421,2.57421c-1.42171,0 -2.57421,-1.1525 -2.57421,-2.57421c0,-1.42171 1.1525,-2.57421 2.57421,-2.57421c1.42171,0 2.57421,1.1525 2.57421,2.57421z" fill="#000000" stroke="#7fb749"/><path d="M95.85514,250.98127c0,0.65967 -0.51337,1.19443 -1.14665,1.19443c-0.63328,0 -1.14665,-0.53477 -1.14665,-1.19443c0,-0.65967 0.51337,-1.19443 1.14665,-1.19443c0.63328,0 1.14665,0.53477 1.14665,1.19443z" fill="#ffffff" stroke="none"/><path d="M96.59168,252.08845c0,0.33983 -0.2178,0.61532 -0.48646,0.61532c-0.26866,0 -0.48646,-0.27549 -0.48646,-0.61532c0,-0.33983 0.2178,-0.61531 0.48646,-0.61531c0.26866,0 0.48646,0.27549 0.48646,0.61531z" fill="#ffffff" stroke="none"/></g><path d="M51.59083,266.13903c0,3.3419 -2.89387,6.05106 -6.46364,6.05106c-3.56976,0 -6.46363,-2.70916 -6.46363,-6.05106c0,-3.3419 2.89387,-6.05106 6.46363,-6.05106c3.56976,0 6.46364,2.70916 6.46364,6.05106z" fill="#7fb749" stroke="#a4f200" stroke-width="1"/><path d="M58.01526,265.39231c0,3.3419 -2.89387,6.05106 -6.46363,6.05106c-3.56976,0 -6.46364,-2.70915 -6.46364,-6.05106c0,-3.3419 2.89388,-6.05106 6.46364,-6.05106c3.56976,0 6.46363,2.70916 6.46363,6.05106z" fill="#81f300" stroke="#7fb749" stroke-width="1"/><path d="M62.93898,262.32815c0,3.3419 -2.89387,6.05106 -6.46364,6.05106c-3.56976,0 -6.46363,-2.70916 -6.46363,-6.05106c0,-3.3419 2.89387,-6.05106 6.46363,-6.05106c3.56976,0 6.46364,2.70916 6.46364,6.05106z" fill="#7fb749" stroke="#a4f200" stroke-width="1"/><path d="M67.87718,261.53557c0,3.3419 -2.89387,6.05106 -6.46363,6.05106c-3.56976,0 -6.46364,-2.70916 -6.46364,-6.05106c0,-3.3419 2.89388,-6.05106 6.46364,-6.05106c3.56977,0 6.46363,2.70916 6.46363,6.05106z" fill="#81f300" stroke="#7fb749" stroke-width="1"/><path d="M70.51247,263.80954c0,3.3419 -2.89387,6.05106 -6.46363,6.05106c-3.56976,0 -6.46364,-2.70916 -6.46364,-6.05106c0,-3.3419 2.89387,-6.05106 6.46364,-6.05106c3.56977,0 6.46363,2.70916 6.46363,6.05106z" fill="#7fb749" stroke="#a4f200" stroke-width="1"/><path d="M73.14047,267.62525c0,3.3419 -2.89387,6.05106 -6.46363,6.05106c-3.56976,0 -6.46363,-2.70916 -6.46363,-6.05106c0,-3.3419 2.89387,-6.05106 6.46363,-6.05106c3.56977,0 6.46363,2.70916 6.46363,6.05106z" fill="#81f300" stroke="#7fb749" stroke-width="1"/><path d="M76.91756,268.02517c0,3.3419 -2.89387,6.05106 -6.46363,6.05106c-3.56977,0 -6.46363,-2.70916 -6.46363,-6.05106c0,-3.3419 2.89387,-6.05106 6.46363,-6.05106c3.56977,0 6.46363,2.70916 6.46363,6.05106z" fill="#7fb749" stroke="#a4f200" stroke-width="1"/><path d="M81.46312,267.66387c0,3.3419 -2.89387,6.05106 -6.46363,6.05106c-3.56977,0 -6.46363,-2.70916 -6.46363,-6.05106c0,-3.3419 2.89387,-6.05106 6.46363,-6.05106c3.56977,0 6.46363,2.70915 6.46363,6.05106z" fill="#81f300" stroke="#7fb749" stroke-width="1"/><path d="M85.64496,265.04067c0,3.3419 -2.89387,6.05106 -6.46364,6.05106c-3.56977,0 -6.46364,-2.70916 -6.46364,-6.05106c0,-3.3419 2.89387,-6.05106 6.46364,-6.05106c3.56977,0 6.46364,2.70916 6.46364,6.05106z" fill="#7fb749" stroke="#a4f200" stroke-width="1"/><path d="M89.42687,262.0079c0,3.3419 -2.89387,6.05106 -6.46363,6.05106c-3.56977,0 -6.46364,-2.70916 -6.46364,-6.05106c0,-3.3419 2.89387,-6.05106 6.46364,-6.05106c3.56977,0 6.46363,2.70916 6.46363,6.05106z" fill="#81f300" stroke="#7fb749" stroke-width="1"/><path d="M92.06214,258.58486c0,3.3419 -2.89388,6.05106 -6.46364,6.05106c-3.56977,0 -6.46363,-2.70916 -6.46363,-6.05106c0,-3.3419 2.89387,-6.05106 6.46363,-6.05106c3.56977,0 6.46364,2.70916 6.46364,6.05106z" fill="#7fb749" stroke="#a4f200" stroke-width="1"/><path d="M95.46103,257.80193c0,3.3419 -2.89387,6.05106 -6.46363,6.05106c-3.56977,0 -6.46364,-2.70915 -6.46364,-6.05106c0,-3.3419 2.89387,-6.05106 6.46364,-6.05106c3.56977,0 6.46363,2.70916 6.46363,6.05106z" fill="#81f300" stroke="#7fb749" stroke-width="1"/><path d="M95.63378,262.33108c-0.50624,1.03614 -2.47655,1.11395 -4.40081,0.17379c-1.92426,-0.94016 -3.0738,-2.54227 -2.56757,-3.5784c0.50624,-1.03614 2.47655,-1.11395 4.40081,-0.17379c1.92426,0.94016 3.0738,2.54227 2.56757,3.5784z" fill="#000000" stroke="#7fb749" stroke-width="0.5"/><path d="M49.73342,249.91229v0z" fill="#000000" stroke="#7fb749" stroke-width="1"/><path d="M75.37434,249.79311c0,0.16804 -0.14758,0.30426 -0.32962,0.30426c-0.18204,0 -0.32962,-0.13622 -0.32962,-0.30426c0,-0.16804 0.14758,-0.30426 0.32962,-0.30426c0.18204,0 0.32962,0.13622 0.32962,0.30426z" fill="#d4d4d4" stroke="none" stroke-width="0"/><path d="M80.4454,250.07201c0,0.09802 -1.22601,0.17749 -2.73837,0.17749c-1.51236,0 -2.73837,-0.07946 -2.73837,-0.17749c0,-0.09802 1.22601,-0.17749 2.73837,-0.17749c1.51236,0 2.73837,0.07946 2.73837,0.17749z" fill="#ffffff" stroke="none" stroke-width="0"/><g stroke-width="0"><path d="M89.9502,251.34915c0,1.52283 -1.23448,2.75731 -2.75731,2.75731c-1.52283,0 -2.75731,-1.23448 -2.75731,-2.75731c0,-1.52283 1.23448,-2.75731 2.75731,-2.75731c1.52283,0 2.75731,1.23448 2.75731,2.75731z" fill="#000000" stroke="#7fb749"/><path d="M88.80137,250.26721c0,0.70659 -0.54989,1.27939 -1.22821,1.27939c-0.67832,0 -1.22821,-0.5728 -1.22821,-1.27939c0,-0.70659 0.54989,-1.27939 1.22821,-1.27939c0.67832,0 1.22821,0.5728 1.22821,1.27939z" fill="#ffffff" stroke="none"/><path d="M89.5903,251.45315c0,0.364 -0.23329,0.65908 -0.52106,0.65908c-0.28777,0 -0.52106,-0.29508 -0.52106,-0.65908c0,-0.364 0.23329,-0.65908 0.52106,-0.65908c0.28777,0 0.52106,0.29508 0.52106,0.65908z" fill="#ffffff" stroke="none"/></g></g></g></svg>