<svg version="1.1" xmlns="http://www.w3.org/2000/svg" xmlns:xlink="http://www.w3.org/1999/xlink" width="290.29319" height="393.58122" viewBox="0,0,290.29319,393.58122"><defs><radialGradient cx="245.48771" cy="278.10941" r="32.49275" gradientUnits="userSpaceOnUse" id="color-1"><stop offset="0" stop-color="#995900"/><stop offset="1" stop-color="#663b00"/></radialGradient><radialGradient cx="194.21607" cy="240.10183" r="35.6208" gradientUnits="userSpaceOnUse" id="color-2"><stop offset="0" stop-color="#006622"/><stop offset="1" stop-color="#009933"/></radialGradient><radialGradient cx="276.66087" cy="99.99221" r="75.5225" gradientUnits="userSpaceOnUse" id="color-3"><stop offset="0" stop-color="#006622"/><stop offset="1" stop-color="#009933"/></radialGradient><radialGradient cx="272.21046" cy="214.47474" r="49.86899" gradientUnits="userSpaceOnUse" id="color-4"><stop offset="0" stop-color="#006622"/><stop offset="1" stop-color="#009933"/></radialGradient><radialGradient cx="172.2865" cy="192.3912" r="50.38354" gradientUnits="userSpaceOnUse" id="color-5"><stop offset="0" stop-color="#006622"/><stop offset="1" stop-color="#009933"/></radialGradient><radialGradient cx="210.48339" cy="217.08622" r="49.86899" gradientUnits="userSpaceOnUse" id="color-6"><stop offset="0" stop-color="#006622"/><stop offset="1" stop-color="#009933"/></radialGradient><radialGradient cx="334.43182" cy="174.20236" r="61.80464" gradientUnits="userSpaceOnUse" id="color-7"><stop offset="0" stop-color="#006622"/><stop offset="1" stop-color="#009933"/></radialGradient><radialGradient cx="267.72381" cy="195.88718" r="49.86899" gradientUnits="userSpaceOnUse" id="color-8"><stop offset="0" stop-color="#006622"/><stop offset="1" stop-color="#009933"/></radialGradient><radialGradient cx="182.24054" cy="175.15701" r="49.89373" gradientUnits="userSpaceOnUse" id="color-9"><stop offset="0" stop-color="#006622"/><stop offset="1" stop-color="#009933"/></radialGradient><radialGradient cx="156.30377" cy="129.74641" r="69.74229" gradientUnits="userSpaceOnUse" id="color-10"><stop offset="0" stop-color="#006622"/><stop offset="1" stop-color="#009933"/></radialGradient><radialGradient cx="309.93874" cy="133.28617" r="63.02346" gradientUnits="userSpaceOnUse" id="color-11"><stop offset="0" stop-color="#006622"/><stop offset="1" stop-color="#009933"/></radialGradient><radialGradient cx="253.33604" cy="168.38902" r="54.42499" gradientUnits="userSpaceOnUse" id="color-12"><stop offset="0" stop-color="#006622"/><stop offset="1" stop-color="#009933"/></radialGradient><radialGradient cx="217.88072" cy="132.33175" r="54.42499" gradientUnits="userSpaceOnUse" id="color-13"><stop offset="0" stop-color="#006622"/><stop offset="1" stop-color="#009933"/></radialGradient><radialGradient cx="259.44081" cy="231.64873" r="28.84916" gradientUnits="userSpaceOnUse" id="color-14"><stop offset="0" stop-color="#006622"/><stop offset="1" stop-color="#009933"/></radialGradient><radialGradient cx="204.15427" cy="93.60236" r="50.21045" gradientUnits="userSpaceOnUse" id="color-15"><stop offset="0" stop-color="#006622"/><stop offset="1" stop-color="#009933"/></radialGradient><radialGradient cx="283.16237" cy="29.91713" r="75.5225" gradientUnits="userSpaceOnUse" id="color-16"><stop offset="0" stop-color="#006622"/><stop offset="1" stop-color="#009933"/></radialGradient><radialGradient cx="162.80527" cy="59.67133" r="69.74229" gradientUnits="userSpaceOnUse" id="color-17"><stop offset="0" stop-color="#006622"/><stop offset="1" stop-color="#009933"/></radialGradient><radialGradient cx="316.44024" cy="63.21109" r="63.02346" gradientUnits="userSpaceOnUse" id="color-18"><stop offset="0" stop-color="#006622"/><stop offset="1" stop-color="#009933"/></radialGradient><radialGradient cx="224.38222" cy="62.25667" r="54.42499" gradientUnits="userSpaceOnUse" id="color-19"><stop offset="0" stop-color="#006622"/><stop offset="1" stop-color="#009933"/></radialGradient><radialGradient cx="210.65577" cy="23.52728" r="50.21045" gradientUnits="userSpaceOnUse" id="color-20"><stop offset="0" stop-color="#006622"/><stop offset="1" stop-color="#009933"/></radialGradient><radialGradient cx="154.21646" cy="-8.62641" r="54.63071" gradientUnits="userSpaceOnUse" id="color-21"><stop offset="0" stop-color="#006622"/><stop offset="1" stop-color="#009933"/></radialGradient><radialGradient cx="241.27917" cy="21.12779" r="50.44948" gradientUnits="userSpaceOnUse" id="color-22"><stop offset="0" stop-color="#006622"/><stop offset="1" stop-color="#009933"/></radialGradient><radialGradient cx="130.14424" cy="24.66755" r="45.58928" gradientUnits="userSpaceOnUse" id="color-23"><stop offset="0" stop-color="#006622"/><stop offset="1" stop-color="#009933"/></radialGradient><radialGradient cx="196.73626" cy="23.71313" r="39.36941" gradientUnits="userSpaceOnUse" id="color-24"><stop offset="0" stop-color="#006622"/><stop offset="1" stop-color="#009933"/></radialGradient><radialGradient cx="206.66556" cy="-15.01626" r="36.32073" gradientUnits="userSpaceOnUse" id="color-25"><stop offset="0" stop-color="#006622"/><stop offset="1" stop-color="#009933"/></radialGradient></defs><g transform="translate(-93.214,29.75882)"><g data-paper-data="{&quot;isPaintingLayer&quot;:true}" fill-rule="nonzero" stroke-linejoin="miter" stroke-miterlimit="10" stroke-dasharray="" stroke-dashoffset="0" style="mix-blend-mode: normal"><path d="M236.80979,190.17401h16.83722v173.06702h-16.83722z" fill="url(#color-1)" stroke="#995900" stroke-width="1.16275" stroke-linecap="butt"/><path d="M191.13451,233.1015c7.89753,-0.59019 17.33501,1.23127 23.30225,3.22c5.96724,1.98938 9.66091,4.73636 9.66091,7.76767c0,3.03131 -4.91968,7.01789 -9.66091,7.76767c-4.2404,0.66184 -8.12084,-3.44113 -12.31444,-3.04938c-2.11424,0.17383 -1.25178,3.17668 -3.20475,4.13644c-1.97964,1.28369 -4.96929,2.18987 -7.78306,2.13295c-5.83072,-0.11896 -11.22393,-0.36457 -15.10809,-2.58534c-5.15503,-2.48907 -9.62886,-6.55769 -10.07202,-10.5353c-0.14742,-1.8162 4.54895,-1.81876 6.86727,-2.74686c5.8638,-2.32947 11.3934,-5.59344 18.31284,-6.10787z" fill="url(#color-2)" stroke="none" stroke-width="0.61823" stroke-linecap="round"/><path d="M251.38736,92.9277c4.63852,-2.9963 7.18064,4.44069 12.77093,2.13348c8.05825,-3.34327 12.65188,-14.92566 20.09814,-15.9682c12.21678,-1.6954 19.27474,6.35581 28.98823,7.97586c7.62458,1.22437 21.258,-2.01727 23.71119,2.60737c2.45325,4.62476 -3.19387,15.41385 -11.13857,21.09395c-7.11242,5.06666 -17.43189,2.51982 -24.67866,7.12969c-3.67268,2.28806 0.31325,6.04407 -2.43264,9.37706c-2.53164,3.85231 -7.19039,8.09508 -12.31142,10.70043c-10.61294,5.39729 -19.91168,9.40237 -29.34187,10.51056c-7.75859,0.91249 -13.78508,-1.15714 -16.87527,-4.88419c-6.12055,-7.37716 -13.57172,-15.43978 -11.68687,-26.02103c2.33952,-8.51912 13.16771,-18.36949 22.8968,-24.65498z" fill="url(#color-3)" stroke="none" stroke-width="1.20104" stroke-linecap="round"/><path d="M267.89635,204.6741c11.05639,-0.82618 24.26893,1.72377 32.62307,4.50806c8.35414,2.78518 13.52533,6.63088 13.52533,10.87474c0,4.24386 -6.88765,9.82512 -13.52533,10.87474c-5.93648,0.92656 -11.36917,-4.81751 -17.24027,-4.26911c-2.95991,0.2433 -1.75236,4.44742 -4.48665,5.79111c-2.77147,1.7971 -6.95687,3.06566 -10.89615,2.98606c-8.16314,-0.16652 -15.71353,-0.51032 -21.15135,-3.61944c-7.2171,-3.48472 -13.48046,-9.18084 -14.1009,-14.74941c-0.20639,-2.54265 6.36848,-2.54637 9.61425,-3.8457c8.20929,-3.26115 15.95068,-7.83074 25.638,-8.55104z" fill="url(#color-4)" stroke="none" stroke-width="0.86553" stroke-linecap="round"/><path d="M168.52809,182.59056c11.05639,-0.82618 24.26893,1.72377 32.62307,4.50806c8.35414,2.78518 13.52533,6.63088 13.52533,10.87474c0,4.24386 -6.88765,9.82512 -13.52533,10.87474c-5.93648,0.92656 -11.36917,-4.81751 -17.24027,-4.26911c-2.95991,0.2433 -1.75236,4.44742 -4.48665,5.79111c-2.77147,1.7971 -6.95687,3.06566 -10.89615,2.98606c-8.16314,-0.16652 -14.55085,-1.55546 -21.15135,-3.61944c-5.6942,-1.8062 -14.07526,-2.37626 -15.06233,-6.10787c-1.12807,-5.03748 5.63139,-9.79974 10.57568,-12.48724c7.51065,-4.02209 15.95068,-7.83074 25.638,-8.55104z" fill="url(#color-5)" stroke="none" stroke-width="0.86553" stroke-linecap="round"/><path d="M206.16929,207.28558c11.05639,-0.82618 24.26893,1.72377 32.62307,4.50806c8.35414,2.78518 13.52533,6.63088 13.52533,10.87474c0,4.24386 -6.88765,9.82512 -13.52533,10.87474c-5.93648,0.92656 -11.36917,-4.81751 -17.24027,-4.26911c-2.95991,0.2433 -1.75236,4.44742 -4.48665,5.79111c-2.77147,1.7971 -6.95687,3.06566 -10.89615,2.98606c-8.16314,-0.16652 -15.71353,-0.51032 -21.15135,-3.61944c-7.2171,-3.48472 -13.48046,-9.18084 -14.1009,-14.74941c-0.20639,-2.54265 6.36848,-2.54637 9.61425,-3.8457c8.20929,-3.26115 15.95068,-7.83074 25.638,-8.55104z" fill="url(#color-6)" stroke="none" stroke-width="0.86553" stroke-linecap="round"/><path d="M370.72387,166.85016c4.29942,0.60767 12.33703,-0.7341 12.73448,1.79698c0.66456,5.57771 -5.5358,12.43496 -13.46703,17.32276c-5.85234,4.15606 -14.99356,6.03762 -24.92906,7.87102c-4.79476,0.88401 -10.23486,0.49874 -14.08172,-0.69321c-3.68556,-0.75575 -3.28381,-5.118 -6.96397,-4.75048c-7.31656,0.6646 -12.48932,7.3988 -19.98242,7.70662c-8.38164,0.33084 -18.22681,-3.72291 -19.31124,-7.87697c-1.08443,-4.15405 4.25377,-8.97655 13.75359,-13.41229c9.50005,-4.43487 24.99855,-9.63452 38.72422,-11.08827c12.02516,-1.27724 22.65537,1.61155 33.52315,3.12384z" fill="url(#color-7)" stroke="none" stroke-width="0.86553" stroke-linecap="round"/><path d="M263.4097,186.08655c11.05639,-0.82618 24.26893,1.72377 32.62307,4.50806c8.35414,2.78518 13.52533,6.63088 13.52533,10.87474c0,4.24386 -6.88765,9.82512 -13.52533,10.87474c-5.93648,0.92656 -11.36917,-4.81751 -17.24027,-4.26911c-2.95991,0.2433 -1.75236,4.44742 -4.48665,5.79111c-2.77147,1.7971 -6.95687,3.06566 -10.89615,2.98606c-8.16314,-0.16652 -15.71353,-0.51032 -21.15135,-3.61944c-7.2171,-3.48472 -13.48046,-9.18084 -14.1009,-14.74941c-0.20639,-2.54265 6.36848,-2.54637 9.61425,-3.8457c8.20929,-3.26115 15.95068,-7.83074 25.638,-8.55104z" fill="url(#color-8)" stroke="none" stroke-width="0.86553" stroke-linecap="round"/><path d="M173.27236,169.32356c8.78422,-6.7649 21.22492,-11.8935 29.73494,-14.15701c8.51051,-2.26276 14.94418,-1.89064 17.27584,1.65531c2.33165,3.54595 -0.35686,11.99356 -5.32627,16.51742c-4.45114,4.03579 -12.14631,2.22117 -16.7506,5.90507c-2.33947,1.82952 0.97932,4.67881 -0.56707,7.3038c-1.32834,3.02425 -4.29806,6.24948 -7.46366,8.48154c-2.94264,2.03682 -6.28086,3.20841 -9.4195,3.75722c-4.6332,0.81677 -8.79347,-0.99071 -13.1425,-1.32136c-5.73414,0.41873 -13.67062,4.26843 -16.98512,1.58432c-1.90327,-1.52955 3.92215,-5.62657 5.92027,-8.49551c5.06751,-7.23518 9.0252,-15.30655 16.72367,-21.23078z" fill="url(#color-9)" stroke="none" stroke-width="0.86553" stroke-linecap="round"/><path d="M143.34286,118.35519c1.57276,-0.13127 2.13936,-0.89656 4.14336,-1.37279c7.53424,-1.79312 16.43819,-7.76075 22.8309,-5.0139c10.48184,4.52088 12.70914,15.66469 19.78497,22.06329c5.57421,4.978 17.84366,8.74794 17.84366,14.34677c0,5.5987 -9.08675,12.96193 -17.84366,14.34677c-7.83177,1.22242 -14.999,-6.35566 -22.7445,-5.63228c-3.90492,0.32112 -2.31191,5.86738 -5.91917,7.64012c-3.65636,2.37087 -9.17802,4.04452 -14.37497,3.93941c-10.76937,-0.21959 -19.89842,-1.09577 -27.9044,-4.77508c-6.58717,-3.02618 -13.17255,-8.12122 -11.41545,-13.07179c2.76672,-7.67589 16.58702,-10.60785 20.29414,-17.7274c1.94477,-3.71982 -9.55349,-7.73447 -6.42655,-10.86333c4.05042,-4.05042 14.39535,-2.20256 21.73167,-3.8798z" fill="url(#color-10)" stroke="none" stroke-width="1.14186" stroke-linecap="round"/><path d="M306.62135,120.16632c13.95199,1.29316 29.88175,7.24661 39.70764,12.4715c9.82585,5.22593 15.46227,11.10475 14.57071,16.39347c-0.89154,5.28859 -10.64744,10.79701 -19.13986,10.7106c-7.5926,-0.09241 -13.15607,-8.39199 -20.58793,-8.94206c-3.73966,-0.31856 -3.11798,5.17417 -6.80782,6.27437c-3.83132,1.65718 -9.31362,2.35888 -14.20601,1.43208c-10.13797,-1.92237 -19.47492,-3.93707 -25.5984,-8.95407c-8.26188,-5.85875 -14.87058,-14.27304 -14.47382,-21.34295c0.27692,-3.21199 8.47123,-1.83529 12.78908,-2.77268c10.91544,-2.33948 21.52277,-6.40776 33.74641,-5.27025z" fill="url(#color-11)" stroke="none" stroke-width="1.09383" stroke-linecap="round"/><path d="M240.29656,153.72883c3.77263,-0.38367 2.92273,5.90789 7.05045,6.37938c5.95571,0.66684 12.46007,-5.88251 17.30565,-3.80045c7.94522,3.42678 9.63348,11.87373 14.99695,16.7238c4.22514,3.77327 13.52533,6.63088 13.52533,10.87474c0,4.24386 -6.88765,9.82512 -13.52533,10.87474c-5.93648,0.92656 -11.36917,-4.81751 -17.24027,-4.26911c-2.95991,0.2433 -1.75236,4.44742 -4.48665,5.79111c-2.77147,1.7971 -6.95687,3.06566 -10.89615,2.98606c-8.16314,-0.16652 -15.08284,-0.83067 -21.15135,-3.61944c-4.993,-2.29383 -7.97855,-6.06531 -8.65283,-9.90832c-1.33702,-7.60821 -3.25987,-16.21257 1.2819,-23.0742c4.15464,-5.21208 13.87913,-8.15288 21.7923,-8.9583z" fill="url(#color-12)" stroke="none" stroke-width="0.86553" stroke-linecap="round"/><path d="M204.84123,117.67156c3.77263,-0.38367 2.92273,5.90789 7.05045,6.37938c5.95571,0.66684 12.46007,-5.88251 17.30565,-3.80045c7.94522,3.42678 9.63348,11.87373 14.99695,16.7238c4.22514,3.77327 13.52533,6.63088 13.52533,10.87474c0,4.24386 -6.88765,9.82512 -13.52533,10.87474c-5.93648,0.92656 -11.36917,-4.81751 -17.24027,-4.26911c-2.95991,0.2433 -1.75236,4.44742 -4.48665,5.79111c-2.77147,1.7971 -6.95687,3.06566 -10.89615,2.98606c-8.16314,-0.16652 -15.08284,-0.83067 -21.15135,-3.61944c-4.993,-2.29383 -7.97855,-6.06531 -8.65283,-9.90832c-1.33702,-7.60821 -3.25987,-16.21257 1.2819,-23.0742c4.15464,-5.21208 13.87913,-8.15288 21.7923,-8.9583z" fill="url(#color-13)" stroke="none" stroke-width="0.86553" stroke-linecap="round"/><path d="M259.82948,227.01838c4.79533,-0.13614 8.78294,0.7585 12.22394,1.87645c18.42539,7.08365 13.6439,9.86781 11.07831,11.73631c-2.215,1.06808 -8.08789,-2.48163 -12.31444,-2.21333c-2.13898,0.12293 -1.04206,3.17873 -3.20475,3.00234c-4.53241,-0.41803 -6.59627,-4.62215 -11.58286,-5.06645c-4.59843,-0.38226 -8.35799,3.29089 -12.819,2.79121c-4.46473,-0.71492 -8.7041,-3.26218 -8.5613,-5.69971c0.12178,-1.96374 5.86187,-2.35536 9.20225,-3.61214c5.1376,-0.90733 10.35775,-2.64917 15.97786,-2.81467z" fill="url(#color-14)" stroke="none" stroke-width="0.56751" stroke-linecap="round"/><path d="M204.77523,83.40998c7.66123,-0.29963 14.032,1.66954 19.5295,4.13044c29.43719,15.59238 21.79809,21.72088 17.69918,25.83391c-3.53877,2.35113 -12.92156,-5.46248 -19.67409,-4.87183c-3.41732,0.27054 -1.66483,6.99685 -5.12005,6.60855c-7.24118,-0.91997 -10.53849,-10.17435 -18.50528,-11.15208c-7.34665,-0.84174 -13.35308,7.24364 -20.48019,6.14406c-7.13304,-1.5737 -13.90605,-7.18076 -13.6779,-12.54637c0.19456,-4.32255 9.36518,-5.18476 14.70191,-7.95102c8.20805,-1.99723 16.54799,-5.83132 25.52691,-6.19567z" fill="url(#color-15)" stroke="none" stroke-width="0.61823" stroke-linecap="round"/><path d="M257.88886,22.85262c4.63852,-2.9963 7.18064,4.44069 12.77093,2.13348c8.05825,-3.34327 12.65188,-14.92566 20.09814,-15.9682c12.21678,-1.6954 19.27474,6.35581 28.98823,7.97586c7.62458,1.22437 21.258,-2.01727 23.71119,2.60737c2.45325,4.62476 -3.19387,15.41385 -11.13857,21.09395c-7.11242,5.06666 -17.43189,2.51982 -24.67866,7.12969c-3.67268,2.28806 0.31325,6.04407 -2.43264,9.37706c-2.53164,3.85231 -7.19039,8.09508 -12.31142,10.70043c-10.61294,5.39729 -19.91168,9.40237 -29.34187,10.51056c-7.75859,0.91249 -13.78508,-1.15714 -16.87527,-4.88419c-6.12055,-7.37716 -13.57172,-15.43978 -11.68687,-26.02103c2.33952,-8.51912 13.16771,-18.36949 22.8968,-24.65498z" fill="url(#color-16)" stroke="none" stroke-width="1.20104" stroke-linecap="round"/><path d="M149.84436,48.28011c1.57276,-0.13127 2.13936,-0.89656 4.14336,-1.37279c7.53424,-1.79312 16.43819,-7.76075 22.8309,-5.0139c10.48184,4.52088 12.70914,15.66469 19.78497,22.06329c5.57421,4.978 17.84366,8.74794 17.84366,14.34677c0,5.5987 -9.08675,12.96193 -17.84366,14.34677c-7.83177,1.22242 -14.999,-6.35566 -22.7445,-5.63228c-3.90492,0.32112 -2.31191,5.86738 -5.91917,7.64012c-3.65636,2.37087 -9.17802,4.04452 -14.37497,3.93941c-10.76937,-0.21959 -19.89842,-1.09577 -27.9044,-4.77508c-6.58717,-3.02618 -13.17255,-8.12122 -11.41545,-13.07179c2.76672,-7.67589 16.58702,-10.60785 20.29414,-17.7274c1.94477,-3.71982 -9.55349,-7.73447 -6.42655,-10.86333c4.05042,-4.05042 14.39535,-2.20256 21.73167,-3.8798z" fill="url(#color-17)" stroke="none" stroke-width="1.14186" stroke-linecap="round"/><path d="M313.12285,50.09124c13.95199,1.29316 29.88175,7.24661 39.70764,12.4715c9.82585,5.22593 15.46227,11.10475 14.57071,16.39347c-0.89154,5.28859 -10.64744,10.79701 -19.13986,10.7106c-7.5926,-0.09241 -13.15607,-8.39199 -20.58793,-8.94206c-3.73966,-0.31856 -3.11798,5.17417 -6.80782,6.27437c-3.83132,1.65718 -9.31362,2.35888 -14.20601,1.43208c-10.13797,-1.92237 -19.47492,-3.93707 -25.5984,-8.95407c-8.26188,-5.85875 -14.87058,-14.27304 -14.47382,-21.34295c0.27692,-3.21199 8.47123,-1.83529 12.78908,-2.77268c10.91544,-2.33948 21.52277,-6.40776 33.74641,-5.27025z" fill="url(#color-18)" stroke="none" stroke-width="1.09383" stroke-linecap="round"/><path d="M211.34273,47.59648c3.77263,-0.38367 2.92273,5.90789 7.05045,6.37938c5.95571,0.66684 12.46007,-5.88251 17.30565,-3.80045c7.94522,3.42678 9.63348,11.87373 14.99695,16.7238c4.22514,3.77327 13.52533,6.63088 13.52533,10.87474c0,4.24386 -6.88765,9.82512 -13.52533,10.87474c-5.93648,0.92656 -11.36917,-4.81751 -17.24027,-4.26911c-2.95991,0.2433 -1.75236,4.44742 -4.48665,5.79111c-2.77147,1.7971 -6.95687,3.06566 -10.89615,2.98606c-8.16314,-0.16652 -15.08284,-0.83067 -21.15135,-3.61944c-4.993,-2.29383 -7.97855,-6.06531 -8.65283,-9.90832c-1.33702,-7.60821 -3.25987,-16.21257 1.2819,-23.0742c4.15464,-5.21208 13.87913,-8.15288 21.7923,-8.9583z" fill="url(#color-19)" stroke="none" stroke-width="0.86553" stroke-linecap="round"/><path d="M211.27673,13.3349c7.66123,-0.29963 14.032,1.66954 19.5295,4.13044c29.43719,15.59238 21.79809,21.72088 17.69918,25.83391c-3.53877,2.35113 -12.92156,-5.46248 -19.67409,-4.87183c-3.41732,0.27054 -1.66483,6.99685 -5.12005,6.60855c-7.24118,-0.91997 -10.53849,-10.17435 -18.50528,-11.15208c-7.34665,-0.84174 -13.35308,7.24364 -20.48019,6.14406c-7.13304,-1.5737 -13.90605,-7.18076 -13.6779,-12.54637c0.19456,-4.32255 9.36518,-5.18476 14.70191,-7.95102c8.20805,-1.99723 16.54799,-5.83132 25.52691,-6.19567z" fill="url(#color-20)" stroke="none" stroke-width="0.61823" stroke-linecap="round"/><path d="M172.49856,-15.69092c-3.35537,-2.9963 -5.19426,4.44069 -9.23811,2.13348c-5.8291,-3.34327 -9.15199,-14.92566 -14.53839,-15.9682c-8.83725,-1.6954 -13.94277,6.35581 -20.96922,7.97586c-5.51539,1.22437 -15.3774,-2.01727 -17.15196,2.60737c-1.77461,4.62476 2.31035,15.41385 8.05731,21.09395c5.14491,5.06666 12.60971,2.51982 17.8518,7.12969c2.65671,2.28806 -0.2266,6.04407 1.7597,9.37706c1.83131,3.85231 5.20131,8.09508 8.90571,10.70043c7.67708,5.39729 14.40351,9.40237 21.22503,10.51056c5.61233,0.91249 9.97171,-1.15714 12.20706,-4.88419c4.42742,-7.37716 9.81738,-15.43978 8.45393,-26.02103c-1.69234,-8.51912 -9.52513,-18.36949 -16.56286,-24.65498z" fill="url(#color-21)" stroke="none" stroke-width="1.20104" stroke-linecap="round"/><path d="M250.65471,9.73657c-1.13769,-0.13127 -1.54755,-0.89656 -2.99718,-1.37279c-5.45004,-1.79312 -11.89089,-7.76075 -16.51519,-5.0139c-7.58225,4.52088 -9.19341,15.66469 -14.31185,22.06329c-4.03222,4.978 -12.90757,8.74794 -12.90757,14.34677c0,5.5987 6.57308,12.96193 12.90757,14.34677c5.66527,1.22242 10.84983,-6.35566 16.45269,-5.63228c2.8247,0.32112 1.67237,5.86738 4.28175,7.64012c2.6449,2.37087 6.6391,4.04452 10.39842,3.93941c7.79024,-0.21959 14.39392,-1.09577 20.18521,-4.77508c4.76496,-3.02618 9.52863,-8.12122 8.25759,-13.07179c-2.00136,-7.67589 -11.99855,-10.60785 -14.68017,-17.7274c-1.40679,-3.71982 6.91071,-7.73447 4.64877,-10.86333c-2.92995,-4.05042 -10.41316,-2.20256 -15.72004,-3.8798z" fill="url(#color-22)" stroke="none" stroke-width="1.14186" stroke-linecap="round"/><path d="M132.54394,11.5477c-10.09245,1.29316 -21.61556,7.24661 -28.72332,12.4715c-7.10773,5.22593 -11.18494,11.10475 -10.54001,16.39347c0.64491,5.28859 7.70204,10.79701 13.8452,10.7106c5.49226,-0.09241 9.51671,-8.39199 14.89269,-8.94206c2.70516,-0.31856 2.25545,5.17417 4.92457,6.27437c2.77146,1.65718 6.73719,2.35888 10.2762,1.43208c7.3335,-1.92237 14.08757,-3.93707 18.51711,-8.95407c5.9764,-5.85875 10.75693,-14.27304 10.46993,-21.34295c-0.20032,-3.21199 -6.12783,-1.83529 -9.25124,-2.77268c-7.8959,-2.33948 -15.56893,-6.40776 -24.41114,-5.27025z" fill="url(#color-23)" stroke="none" stroke-width="1.09383" stroke-linecap="round"/><path d="M206.16863,9.05294c-2.72901,-0.38367 -2.11422,5.90789 -5.10008,6.37938c-4.30818,0.66684 -9.01324,-5.88251 -12.51839,-3.80045c-5.74733,3.42678 -6.96857,11.87373 -10.84834,16.7238c-3.05634,3.77327 -9.78382,6.63088 -9.78382,10.87474c0,4.24386 4.98232,9.82512 9.78382,10.87474c4.29427,0.92656 8.22412,-4.81751 12.47109,-4.26911c2.14111,0.2433 1.2676,4.44742 3.24551,5.79111c2.0048,1.7971 5.03239,3.06566 7.88195,2.98606c5.90497,-0.16652 10.91047,-0.83067 15.30025,-3.61944c3.61179,-2.29383 5.77144,-6.06531 6.2592,-9.90832c0.96716,-7.60821 2.35809,-16.21257 -0.92729,-23.0742c-3.00534,-5.21208 -10.03975,-8.15288 -15.7639,-8.9583z" fill="url(#color-24)" stroke="none" stroke-width="0.86553" stroke-linecap="round"/><path d="M206.21637,-25.20864c-5.5419,-0.29963 -10.15033,1.66954 -14.12705,4.13044c-21.29398,15.59238 -15.76808,21.72088 -12.80306,25.83391c2.55984,2.35113 9.34707,-5.46248 14.23165,-4.87183c2.47199,0.27054 1.20429,6.99685 3.70369,6.60855c5.23805,-0.91997 7.62323,-10.17435 13.38616,-11.15208c5.31435,-0.84174 9.65922,7.24364 14.81476,6.14406c5.15983,-1.5737 10.05922,-7.18076 9.89418,-12.54637c-0.14074,-4.32255 -6.77449,-5.18476 -10.63492,-7.95102c-5.93746,-1.99723 -11.97032,-5.83132 -18.4654,-6.19567z" fill="url(#color-25)" stroke="none" stroke-width="0.61823" stroke-linecap="round"/></g></g></svg>