<svg version="1.1" xmlns="http://www.w3.org/2000/svg" xmlns:xlink="http://www.w3.org/1999/xlink" width="32.65998" height="33.61289" viewBox="0,0,32.65998,33.61289"><defs><linearGradient x1="282.97526" y1="236.83427" x2="257.71229" y2="263.74857" gradientUnits="userSpaceOnUse" id="color-1"><stop offset="0" stop-color="#22553f"/><stop offset="1" stop-color="#4b8234"/></linearGradient><linearGradient x1="267.74497" y1="251.78689" x2="268.23956" y2="252.25113" gradientUnits="userSpaceOnUse" id="color-2"><stop offset="0" stop-color="#009f0e"/><stop offset="1" stop-color="#008c0c"/></linearGradient><linearGradient x1="278.02959" y1="239.02992" x2="278.13394" y2="239.04543" gradientUnits="userSpaceOnUse" id="color-3"><stop offset="0" stop-color="#009f0e"/><stop offset="1" stop-color="#008c0c"/></linearGradient><linearGradient x1="268.64164" y1="244.82357" x2="268.88944" y2="244.86041" gradientUnits="userSpaceOnUse" id="color-4"><stop offset="0" stop-color="#009f0e"/><stop offset="1" stop-color="#008c0c"/></linearGradient><linearGradient x1="264.26892" y1="248.19481" x2="264.56086" y2="248.23821" gradientUnits="userSpaceOnUse" id="color-5"><stop offset="0" stop-color="#009f0e"/><stop offset="1" stop-color="#008c0c"/></linearGradient><linearGradient x1="279.91833" y1="243.1635" x2="279.89131" y2="243.03727" gradientUnits="userSpaceOnUse" id="color-6"><stop offset="0" stop-color="#009f0e"/><stop offset="1" stop-color="#008c0c"/></linearGradient><linearGradient x1="273.96785" y1="252.40152" x2="273.91157" y2="252.1386" gradientUnits="userSpaceOnUse" id="color-7"><stop offset="0" stop-color="#009f0e"/><stop offset="1" stop-color="#008c0c"/></linearGradient><linearGradient x1="270.84651" y1="257.23849" x2="270.77835" y2="256.92002" gradientUnits="userSpaceOnUse" id="color-8"><stop offset="0" stop-color="#009f0e"/><stop offset="1" stop-color="#008c0c"/></linearGradient></defs><g transform="translate(-252.73534,-234.09939)"><g data-paper-data="{&quot;isPaintingLayer&quot;:true}" fill-rule="nonzero" stroke-linejoin="miter" stroke-miterlimit="10" stroke-dasharray="" stroke-dashoffset="0" style="mix-blend-mode: normal"><path d="M276.63538,260.27532c-4.14695,4.41802 -8.79237,3.98201 -19.51786,2.91498c-0.51534,-12.83086 -1.28246,-14.12857 2.86449,-18.54658c4.14695,-4.41802 15.3056,-11.79212 24.25084,-9.44975c1.89706,6.43083 -3.45051,20.66334 -7.59746,25.08136z" fill="url(#color-1)" stroke="none" stroke-width="none" stroke-linecap="butt"/><path d="M253.73534,266.71227l30.41404,-31.41092" fill="url(#color-2)" stroke="#00f20b" stroke-width="2" stroke-linecap="round"/><path d="M277.56148,242.17882l0.94258,-7.07943" fill="url(#color-3)" stroke="#00f20b" stroke-width="2" stroke-linecap="round"/><path d="M267.52998,252.30157l2.47112,-14.91916" fill="url(#color-4)" stroke="#00f20b" stroke-width="2" stroke-linecap="round"/><path d="M262.95923,257.00495l0.72963,-15.25257" fill="url(#color-5)" stroke="#00f20b" stroke-width="2" stroke-linecap="round"/><path d="M276.10889,243.97885l8.28643,-2.79742" fill="url(#color-6)" stroke="#00f20b" stroke-width="2" stroke-linecap="round"/><path d="M266.03343,254.09976l15.81256,-3.6594" fill="url(#color-7)" stroke="#00f20b" stroke-width="2" stroke-linecap="round"/><path d="M261.23593,259.29548l19.15299,-4.43245" fill="url(#color-8)" stroke="#00f20b" stroke-width="2" stroke-linecap="round"/><path d="M282.37,234.79302c0.18586,0.17446 0.0114,0.36032 0.0114,0.36032l-0.09512,0.08223c-0.25754,0.54563 -0.84408,1.26157 -1.4225,1.48625c-0.31929,0.12403 -0.64298,0.13578 -0.97879,0.31506c-0.49747,0.2656 -0.88064,0.81273 -1.26118,1.21814c0,0 -0.17446,0.18586 -0.36032,0.0114c-0.18586,-0.17446 -0.0114,-0.36032 -0.0114,-0.36032c0.42755,-0.4555 0.83634,-1.01346 1.39184,-1.31845c0.35426,-0.1945 0.71896,-0.23299 1.0683,-0.35261c0.42814,-0.1466 0.93321,-0.81511 1.11108,-1.21294l0.18638,-0.21768c0,0 0.17446,-0.18586 0.36032,-0.0114z" fill="#00f20b" stroke="none" stroke-width="0.5" stroke-linecap="butt"/><path d="M269.56977,253.39779c0,0 -0.04206,0.25142 -0.29348,0.20936c-0.25142,-0.04206 -0.20936,-0.29348 -0.20936,-0.29348c0.3399,-2.01577 1.96708,-3.49754 3.40989,-4.92871c-0.27089,0.11713 -0.51687,0.27324 -0.71916,0.49065c0,0 -0.17446,0.18586 -0.36032,0.0114c-0.18586,-0.17446 -0.0114,-0.36032 -0.0114,-0.36032c0.482,-0.5097 1.13292,-0.73438 1.81453,-0.88135l0.04748,-0.05058c0,0 0.1641,-0.17482 0.34355,-0.02622c0.29447,-0.05345 0.58976,-0.09988 0.87503,-0.15554c1.22045,-0.23812 2.32163,-0.77375 3.52857,-1.05674c0.71802,-0.16233 0.72626,-0.54218 1.12348,-1.10643c0.65507,-0.93051 1.63203,-1.74707 1.82235,-2.9335l0.20631,-0.28235c0,0 0.17446,-0.18586 0.36032,-0.0114c0.18586,0.17446 0.0114,0.36032 0.0114,0.36032l-0.0752,0.01756c-0.22238,1.28524 -1.20533,2.13696 -1.91362,3.15026c-0.07655,0.10952 -0.14306,0.21265 -0.20457,0.30944c0.63729,-0.05547 1.26985,-0.17315 1.89874,-0.19306c0.78836,-0.02495 1.43184,0.39119 2.19412,0.36706l0.14535,-0.0046c0,0 0.25479,-0.00806 0.26285,0.24672c0.00806,0.25479 -0.24672,0.26285 -0.24672,0.26285l-0.14536,0.0046c-0.78056,0.0247 -1.40742,-0.39196 -2.19412,-0.36706c-0.75544,0.02391 -1.52053,0.18979 -2.29004,0.2179c-0.18638,0.20639 -0.42307,0.35865 -0.83956,0.4582c-0.60635,0.14047 -1.13127,0.46983 -1.71735,0.63448c-0.57579,0.16176 -1.2382,0.30599 -1.82521,0.4253c-0.34869,0.07088 -0.7269,0.12086 -1.09971,0.19143c-1.47186,1.5446 -3.53695,3.11217 -3.8988,5.2938z" fill="#00f20b" stroke="none" stroke-width="0.5" stroke-linecap="butt"/><path d="M272.32617,239.25458c-0.88064,0.93821 -1.80005,1.76746 -2.67894,2.70379c0,0 -0.17446,0.18586 -0.36032,0.0114c-0.18586,-0.17446 -0.0114,-0.36032 -0.0114,-0.36032c0.8794,-0.93688 1.79836,-1.76565 2.67894,-2.70379l0.00046,-0.00049c-0.22869,-0.14439 -0.45068,-0.2943 -0.6256,-0.52326c-0.19511,-0.25539 -0.33289,-0.60931 -0.48597,-0.89269l-0.02515,-0.00567c0,0 -0.18586,-0.17446 -0.0114,-0.36032c0.17446,-0.18586 0.36032,-0.0114 0.36032,-0.0114l0.1248,0.13508c0.14001,0.25918 0.26302,0.58998 0.44136,0.82397c0.1983,0.26018 0.46991,0.38242 0.72665,0.55035c0.01534,0.00815 0.03091,0.01842 0.0466,0.03115c0.33787,0.23138 0.64351,0.5718 0.94319,0.87557c0.06928,-0.21545 0.17303,-0.41202 0.26468,-0.66236c0.30238,-0.82596 0.20134,-1.74346 0.56432,-2.53075l-0.01416,-0.23196c0,0 -0.00806,-0.25479 0.24672,-0.26285c0.25479,-0.00806 0.26285,0.24672 0.26285,0.24672l0.00424,0.34946c-0.37181,0.80643 -0.27517,1.74726 -0.58286,2.59808c-0.14014,0.3875 -0.33399,0.57789 -0.31465,1.00924c0.00091,0.39524 0.19944,0.79211 0.2551,1.20355c0.07435,0.54957 -0.01932,1.26259 -0.08978,1.81212c-0.12503,0.97522 -0.50214,2.06605 -0.26935,3.04863c0,0 0.05788,0.24826 -0.19038,0.30613c-0.24826,0.05788 -0.30613,-0.19038 -0.30613,-0.19038c-0.24289,-1.05687 0.12988,-2.17795 0.25961,-3.22463c0.06229,-0.50252 0.16672,-1.18622 0.09053,-1.6856c-0.06305,-0.41323 -0.21476,-0.76582 -0.25285,-1.16742c-0.04648,-0.02156 -0.07595,-0.04922 -0.07595,-0.04922c-0.29444,-0.27638 -0.59297,-0.63985 -0.91884,-0.90247z" fill="#00f20b" stroke="none" stroke-width="0.5" stroke-linecap="butt"/><path d="M263.74629,242.801c0.25479,-0.00806 0.26285,0.24672 0.26285,0.24672l-0.02591,0.03226c0.38444,0.71167 0.91299,1.11473 1.40996,1.73123c0.36792,0.45641 0.74628,0.93253 1.22579,1.29352c0.40098,0.30186 1.11812,0.30056 1.5816,0.51073c0,0 0.23149,0.10673 0.12476,0.33823c-0.10673,0.23149 -0.33823,0.12476 -0.33823,0.12476c-0.50943,-0.23967 -1.18986,-0.22288 -1.65301,-0.5509c-0.52011,-0.36836 -0.94529,-0.90262 -1.33265,-1.39002c-0.51279,-0.64522 -1.06501,-1.07146 -1.46679,-1.81523l-0.03511,-0.25845c0,0 -0.00806,-0.25479 0.24672,-0.26285z" fill="#00f20b" stroke="none" stroke-width="0.5" stroke-linecap="butt"/><path d="M258.6805,245.94409c0.25479,-0.00806 0.26285,0.24672 0.26285,0.24672l0.0046,0.14536c0.01423,0.44965 0.13943,0.71183 0.24073,1.14636c0.2306,0.41908 0.43138,0.8507 0.61918,1.28071c0.08351,0.19121 0.07708,0.427 0.20597,0.59108c0.20383,0.25946 0.56836,0.60162 0.84019,0.78864c0.1804,0.12411 0.43414,0.08581 0.63168,0.1803c0.56401,0.26978 1.1034,1.0207 1.5609,1.45013c0,0 0.18586,0.17446 0.0114,0.36032c-0.17446,0.18586 -0.36032,0.0114 -0.36032,0.0114c-0.40526,-0.38039 -0.93974,-1.14724 -1.43821,-1.36497c-0.63249,-0.27626 -1.1984,-0.51158 -1.64959,-1.11478c-0.42048,-0.56213 -0.56245,-1.37167 -0.89796,-2.00219c-0.11171,-0.47921 -0.25763,-0.80822 -0.27354,-1.31087l-0.0046,-0.14535c0,0 -0.00806,-0.25479 0.24672,-0.26285z" fill="#00f20b" stroke="none" stroke-width="0.5" stroke-linecap="butt"/><path d="M271.64086,263.57485c-0.17446,0.18586 -0.36032,0.0114 -0.36032,0.0114l-0.07498,-0.07038c-0.60731,-0.62575 -1.64836,-0.36762 -2.43201,-0.50803c-0.72026,-0.12905 -1.80713,-0.79875 -2.35412,-1.30475c0,0 -0.16032,-0.15048 -0.04341,-0.32082c-0.59154,0.12047 -1.16847,0.28673 -1.68283,0.56419c-0.42621,0.27443 -0.93375,0.58908 -1.42346,0.72445c-0.82378,0.22772 -1.86991,-0.14506 -2.65392,-0.27614c-0.46601,-0.07791 -1.62009,-0.29701 -1.95753,0.13596c0,0 -0.17446,0.18586 -0.36032,0.0114c-0.18586,-0.17446 -0.0114,-0.36032 -0.0114,-0.36032c0.44613,-0.43198 0.83867,-0.32043 1.41349,-0.33759c0.17487,-0.00522 0.34272,-0.09562 0.51748,-0.08763c0.57061,0.02609 1.11021,0.29768 1.65335,0.3894c0.98477,0.1663 1.73625,-0.10616 2.56298,-0.63847c0.97402,-0.52687 2.16237,-0.71392 3.27135,-0.86127c0.34938,-0.04642 0.6372,-0.23721 0.98354,-0.31842c0.88944,-0.20854 1.87137,-0.3527 2.78431,-0.38343c0.38307,-0.06716 0.77963,-0.11931 1.18078,-0.14755c-0.01611,-0.0249 -0.02934,-0.05562 -0.03816,-0.09344c-0.05788,-0.24826 0.19038,-0.30613 0.19038,-0.30613c1.73653,-0.39259 3.03255,-2.39179 4.19263,-3.6277l0.14075,-0.14996c0,0 0.17446,-0.18586 0.36032,-0.0114c0.18586,0.17446 0.0114,0.36032 0.0114,0.36032l-0.14075,0.14996c-1.16603,1.24225 -2.38719,3.0439 -4.05121,3.65494c0.8699,0.00169 1.73828,0.13724 2.51578,0.49571l0.18652,0.05301c0,0 0.24426,0.07292 0.17134,0.31718c-0.07292,0.24426 -0.31718,0.17134 -0.31718,0.17134l-0.25414,-0.07854c-1.25387,-0.5781 -2.76742,-0.51347 -4.09626,-0.28058c-0.94372,0.02787 -2.15887,0.11557 -3.04942,0.4471c-0.23382,0.08704 -0.45772,0.21562 -0.70438,0.25311c-0.3376,0.05131 -0.68286,0.10078 -1.02656,0.16099c0.015,0.01068 0.02345,0.01862 0.02345,0.01862c0.44261,0.42291 1.25014,0.87947 1.79469,1.13543c0.5103,0.23987 1.16116,-0.02164 1.68644,0.06877c0.39782,0.06847 1.02017,0.35614 1.30501,0.60858l0.07498,0.07038c0,0 0.18586,0.17446 0.0114,0.36032z" fill="#00f20b" stroke="none" stroke-width="0.5" stroke-linecap="butt"/><path d="M277.69692,251.43159c0.138,0.21433 -0.07633,0.35233 -0.07633,0.35233l-0.33133,0.21107c-0.40972,0.44092 -0.92528,0.68214 -1.32366,1.11246c-0.50449,0.53747 -0.99466,1.23088 -1.57865,1.67703c-0.42172,0.32218 -0.93292,0.52454 -1.35557,0.84315c-0.50477,0.38052 -0.94256,1.00898 -1.3772,1.47203c0,0 -0.17446,0.18586 -0.36032,0.0114c-0.18586,-0.17446 -0.0114,-0.36032 -0.0114,-0.36032c0.45779,-0.48771 0.90976,-1.11964 1.43789,-1.52707c0.41947,-0.3236 0.93468,-0.52237 1.35557,-0.84315c0.56018,-0.42695 1.03358,-1.10595 1.51796,-1.62199c0.42278,-0.44537 0.9402,-0.70229 1.36908,-1.15527l0.38164,-0.248c0,0 0.21433,-0.138 0.35233,0.07633z" fill="#00f20b" stroke="none" stroke-width="0.5" stroke-linecap="butt"/><path d="M256.78545,254.03351c0.22428,-0.12116 0.34544,0.10313 0.34544,0.10313l0.17639,0.34088c0.02585,0.8167 0.79988,1.59951 1.2188,2.25043c0.49499,0.76912 0.43119,1.74219 0.87232,2.49591c0.13516,0.23094 0.58514,0.53424 0.77838,0.71562c0,0 0.18586,0.17446 0.0114,0.36032c-0.17446,0.18586 -0.36032,0.0114 -0.36032,0.0114c-0.24171,-0.22688 -0.70169,-0.55352 -0.87113,-0.83268c-0.44823,-0.73851 -0.36815,-1.7126 -0.85044,-2.46126c-0.4436,-0.6886 -1.26381,-1.54004 -1.29125,-2.40697l-0.13272,-0.23134c0,0 -0.12116,-0.22428 0.10313,-0.34544z" fill="#00f20b" stroke="none" stroke-width="0.5" stroke-linecap="butt"/><path d="M270.98121,256.87577c-0.07292,0.24426 -0.31718,0.17134 -0.31718,0.17134l-0.13935,-0.05525c-0.0969,0.00307 -0.19381,0.00613 -0.29071,0.0092c-1.26808,0.01538 -2.39002,-0.70507 -3.60126,-1.06151c-0.7166,-0.21088 -1.70076,-0.16009 -2.42026,0.01037c0,0 -0.24826,0.05788 -0.30613,-0.19038c-0.05788,-0.24826 0.19038,-0.30613 0.19038,-0.30613c0.80379,-0.18473 1.8732,-0.23987 2.67176,-0.00528c1.12203,0.32961 2.27394,1.11513 3.44938,1.04336c0.0969,-0.00307 0.19381,-0.00613 0.29071,-0.0092l0.30132,0.0763c0,0 0.24426,0.07292 0.17134,0.31718z" fill="#00f20b" stroke="none" stroke-width="0.5" stroke-linecap="butt"/><path d="M281.97837,245.15107c0,0 0.24962,-1.51442 0.37781,-2.29213c0.13286,-0.80605 0.40584,-2.46221 0.40584,-2.46221l0.76827,-2.15034l-0.34629,5.61341z" fill="#fcffe6" stroke="none" stroke-width="0" stroke-linecap="butt"/><path d="M257.53011,256.98045c0,0 0.17932,-2.20635 0.27141,-3.3394c0.09545,-1.17433 0.29155,-3.58718 0.29155,-3.58718l0.87296,-3.07991l0.20039,8.2522z" fill="#fcffe6" stroke="none" stroke-width="0" stroke-linecap="butt"/></g></g></svg>